<?xml version="1.0" encoding="UTF-8"?>
<svg version="1.1" xmlns="http://www.w3.org/2000/svg" width="736" height="736">
<path d="M0 0 C1.55521173 0.00031721 3.11044535 0.0116478 4.66552734 0.03173828 C5.89316299 0.03598312 5.89316299 0.03598312 7.14559937 0.04031372 C9.76436877 0.05152546 12.38279848 0.07663149 15.00146484 0.10205078 C16.77489741 0.11207931 18.54833533 0.12120538 20.32177734 0.12939453 C24.6734711 0.151468 29.02491034 0.18600434 33.37646484 0.22705078 C40.31103751 12.87671514 47.17517414 25.56227248 53.96832275 38.28833008 C57.84953174 45.55646749 61.77709107 52.794024 65.81396484 59.97705078 C68.77234093 65.24539175 71.58754508 70.55390108 74.25146484 75.97705078 C77.26378678 82.1079494 80.45885383 88.11719087 83.75146484 94.10205078 C89.04012012 103.71638069 94.19264364 113.39800243 99.31396484 123.10205078 C107.61992624 138.83263222 116.03565158 154.49991318 124.59521484 170.09423828 C129.38532299 178.82836371 134.09063927 187.56073567 138.48583984 196.50048828 C140.91142312 201.34895373 143.52687939 206.09537124 146.12646484 210.85205078 C146.63395264 211.78331787 147.14144043 212.71458496 147.66430664 213.67407227 C150.27418965 218.44674649 152.92053604 223.19394761 155.63037109 227.91064453 C156.14438477 228.81540527 156.65839844 229.72016602 157.18798828 230.65234375 C158.16740178 232.37316753 159.15845425 234.08743387 160.16259766 235.79394531 C160.60055664 236.56722168 161.03851562 237.34049805 161.48974609 238.13720703 C162.07429565 239.14473022 162.07429565 239.14473022 162.6706543 240.17260742 C163.89728793 243.7430405 162.74534267 246.39661184 161.26000977 249.74047852 C160.79699463 250.6216333 160.33397949 251.50278809 159.85693359 252.41064453 C159.33591064 253.40829834 158.8148877 254.40595215 158.27807617 255.43383789 C157.71241943 256.49997314 157.1467627 257.5661084 156.56396484 258.66455078 C155.97574951 259.78418213 155.38753418 260.90381348 154.78149414 262.05737305 C150.67677168 269.8442811 146.48284116 277.58035661 142.24365234 285.29467773 C137.59769521 293.76861017 133.07679426 302.30677199 128.56396484 310.85205078 C122.38718197 322.54630154 116.18160394 334.2237384 109.92675781 345.87646484 C106.71206807 351.86611118 103.50382611 357.85904108 100.31005859 363.85986328 C99.96966553 364.4993541 99.62927246 365.13884491 99.27856445 365.79771423 C98.93817139 366.43721512 98.59777832 367.076716 98.24707031 367.7355957 C97.56105233 369.0244232 96.87501723 370.31324159 96.18896484 371.60205078 C95.85189514 372.23527252 95.51482544 372.86849426 95.1675415 373.52090454 C90.86781002 381.59497715 86.5266887 389.64468225 82.12646484 397.66455078 C77.58951003 405.93392233 73.20371987 414.27403165 68.86230469 422.64746094 C65.11094725 429.86497071 61.24206394 437.0106859 57.32250977 444.13793945 C51.50776342 454.7475164 45.88588836 465.45984742 40.25488281 476.16772461 C39.49984015 477.60026195 38.7447947 479.03279783 37.98974609 480.46533203 C37.46404274 481.46838379 37.46404274 481.46838379 36.92771912 482.49169922 C34.4892979 487.11421773 34.4892979 487.11421773 33.37646484 488.22705078 C30.63752399 488.31563724 27.92393214 488.34228557 25.18505859 488.32470703 C24.36521988 488.32329208 23.54538116 488.32187714 22.70069885 488.32041931 C20.07175102 488.31480367 17.44288711 488.30224857 14.81396484 488.28955078 C13.03597128 488.28453779 11.25797638 488.27997454 9.47998047 488.27587891 C5.11210939 488.26482917 0.74430136 488.24755409 -3.62353516 488.22705078 C-3.10473048 484.36568139 -2.42052706 481.34335148 -0.49853516 477.95361328 C-0.04824951 477.14585449 0.40203613 476.3380957 0.8659668 475.50585938 C1.36443115 474.63010254 1.86289551 473.7543457 2.37646484 472.85205078 C3.47604803 470.87916519 4.5735811 468.90513605 5.66943359 466.93017578 C6.26546387 465.85832031 6.86149414 464.78646484 7.47558594 463.68212891 C10.5819455 458.03594338 13.59441675 452.34049734 16.60824585 446.64453125 C18.42700267 443.20721285 20.24950104 439.77187927 22.07177734 436.33642578 C22.43303207 435.65519653 22.7942868 434.97396729 23.16648865 434.27209473 C30.89666465 419.70088295 38.7070905 405.17226848 46.53759766 390.65478516 C52.70085732 379.22729403 58.81487042 367.7747396 64.89978027 356.30541992 C71.73905287 343.41474908 78.6212942 330.54767477 85.52050781 317.68896484 C87.42425392 314.13790989 89.32469547 310.5851051 91.22412109 307.03173828 C101.8158127 287.22256544 101.8158127 287.22256544 107.18579102 277.41210938 C108.64913056 274.7373614 110.10491979 272.0586104 111.56005859 269.37939453 C113.47797565 265.85238325 115.43422458 262.34992959 117.41162109 258.85595703 C118.35871846 257.14658902 119.30535346 255.43696472 120.25146484 253.72705078 C120.69917236 252.95546631 121.14687988 252.18388184 121.6081543 251.38891602 C122.20116333 250.30332397 122.20116333 250.30332397 122.80615234 249.19580078 C123.33571533 248.25897461 123.33571533 248.25897461 123.87597656 247.30322266 C125.12043932 242.14082689 121.27943866 236.85148774 118.88427734 232.41455078 C118.54258514 231.77291992 118.20089294 231.13128906 117.84884644 230.47021484 C116.73763841 228.38667236 115.61969756 226.30683028 114.50146484 224.22705078 C113.72250805 222.77018575 112.94386502 221.31315292 112.16552734 219.85595703 C107.48044337 211.09564706 102.74243848 202.36489993 97.96557617 193.65429688 C93.64204949 185.75435822 89.40957802 177.8072736 85.18896484 169.85205078 C84.83113922 169.17764954 84.4733136 168.50324829 84.10464478 167.80841064 C81.1549645 162.24784851 78.20848431 156.68559207 75.26208496 151.12329102 C72.69749967 146.28210545 70.13169087 141.44157132 67.56396484 136.60205078 C67.20540405 135.9261792 66.84684326 135.25030762 66.47741699 134.55395508 C61.72623144 125.60225901 56.91609857 116.68546646 52.03881836 107.80175781 C47.44312896 99.4041024 42.97205834 90.9417025 38.50146484 82.47705078 C32.8030146 71.68959497 27.08946017 60.91099483 21.31396484 50.16455078 C20.72437988 49.0646582 20.13479492 47.96476562 19.52734375 46.83154297 C18.99157715 45.83670898 18.45581055 44.841875 17.90380859 43.81689453 C17.4370874 42.9492749 16.97036621 42.08165527 16.48950195 41.18774414 C15.52581003 39.28777914 15.52581003 39.28777914 14.37646484 38.22705078 C12.24978502 42.18448316 10.12500571 46.14293332 8.00146484 50.10205078 C7.67133392 50.7175177 7.341203 51.33298462 7.00106812 51.96710205 C1.7471011 61.76602161 -3.46504939 71.58648871 -8.65756226 81.41809082 C-14.39651769 92.28410154 -20.1692565 103.12624431 -26.08398438 113.89794922 C-30.43835527 121.84553092 -34.69122321 129.84562033 -38.93603516 137.85205078 C-39.29817108 138.53507263 -39.66030701 139.21809448 -40.03341675 139.92181396 C-40.39565338 140.60503723 -40.75789001 141.2882605 -41.13110352 141.9921875 C-41.86162629 143.36996893 -42.59217638 144.74773588 -43.32275391 146.12548828 C-43.68412949 146.80698944 -44.04550507 147.4884906 -44.41783142 148.19064331 C-49.83883877 158.40873607 -55.31226884 168.5987681 -60.78076172 178.79150391 C-63.27129159 183.43468571 -65.75928895 188.07922207 -68.24707031 192.72387695 C-69.48869834 195.04187338 -70.73055678 197.3597464 -71.97265625 199.67749023 C-74.8993636 205.13895585 -77.82437027 210.60130446 -80.74365234 216.06674194 C-82.12118753 218.64550348 -83.49964499 221.22377148 -84.87817383 223.80200195 C-85.53439695 225.02994559 -86.19016922 226.25813029 -86.84545898 227.48657227 C-87.75471311 229.19104166 -88.66565322 230.89461134 -89.57666016 232.59814453 C-90.09389648 233.56679443 -90.61113281 234.53544434 -91.14404297 235.53344727 C-92.62353516 238.22705078 -92.62353516 238.22705078 -94.43896484 240.76635742 C-95.92753708 243.17759378 -95.92753708 243.17759378 -94.9609375 245.74291992 C-94.51959473 246.56268311 -94.07825195 247.38244629 -93.62353516 248.22705078 C-93.24793457 248.995896 -92.87233398 249.76474121 -92.48535156 250.55688477 C-92.06946777 251.35425049 -91.65358398 252.15161621 -91.22509766 252.97314453 C-90.51619385 254.33403198 -90.51619385 254.33403198 -89.79296875 255.72241211 C-89.28330566 256.69331787 -88.77364258 257.66422363 -88.24853516 258.66455078 C-87.44343506 260.20308716 -87.44343506 260.20308716 -86.62207031 261.77270508 C-82.673459 269.29191829 -78.62667594 276.75323952 -74.5390625 284.19750977 C-69.90261118 292.66468313 -65.38269183 301.19167416 -60.87353516 309.72705078 C-60.49362427 310.44604553 -60.11371338 311.16504028 -59.72229004 311.90582275 C-58.95287411 313.3619756 -58.18346495 314.81813203 -57.4140625 316.27429199 C-57.0320166 316.99733521 -56.6499707 317.72037842 -56.25634766 318.46533203 C-55.87365723 319.18966431 -55.4909668 319.91399658 -55.09667969 320.66027832 C-51.34083794 327.76672625 -47.57041119 334.8653622 -43.79040527 341.95898438 C-43.10452701 343.2463622 -42.41905083 344.53395435 -41.73400879 345.82177734 C-40.78419033 347.60717696 -39.83279866 349.39173937 -38.88134766 351.17626953 C-38.31577148 352.24151855 -37.75019531 353.30676758 -37.16748047 354.40429688 C-35.88761477 356.74424109 -34.53475737 358.99078944 -33.11572266 361.24658203 C-31.34069872 364.79198325 -31.52886371 365.51458651 -32.62353516 369.22705078 C-33.73320447 371.61727072 -34.87540102 373.92306392 -36.11572266 376.24267578 C-36.46232941 376.89911072 -36.80893616 377.55554565 -37.16604614 378.23187256 C-37.89743861 379.61190099 -38.63219673 380.99015035 -39.37011719 382.36669922 C-40.49910066 384.47810838 -41.61057476 386.59812244 -42.72119141 388.71923828 C-43.43499216 390.06093952 -44.14980128 391.40210489 -44.86572266 392.74267578 C-45.19708221 393.3780426 -45.52844177 394.01340942 -45.86984253 394.66802979 C-48.27968546 399.11243422 -48.27968546 399.11243422 -51.62353516 400.22705078 C-52.07567383 399.37288574 -52.5278125 398.5187207 -52.99365234 397.63867188 C-63.89362932 377.03406745 -63.89362932 377.03406745 -74.99853516 356.53955078 C-79.25711357 348.78008161 -83.39774385 340.96662195 -87.48266602 333.11450195 C-90.76700541 326.81809696 -94.14315426 320.57684423 -97.56103516 314.35205078 C-101.67528935 306.8570916 -105.68939668 299.31807687 -109.62353516 291.72705078 C-113.64377173 283.97138285 -117.74451719 276.26654078 -121.93603516 268.60205078 C-122.43377441 267.68681641 -122.93151367 266.77158203 -123.44433594 265.82861328 C-125.57980111 261.91132686 -127.73131321 258.01282846 -130.00244141 254.17236328 C-130.66115234 253.03541016 -131.31986328 251.89845703 -131.99853516 250.72705078 C-132.56314453 249.78861328 -133.12775391 248.85017578 -133.70947266 247.88330078 C-134.98106661 244.18807048 -134.24167416 242.77154574 -132.62353516 239.22705078 C-131.03417337 236.099027 -129.33823388 233.03785484 -127.62353516 229.97705078 C-121.71232879 219.29450442 -115.98822844 208.52000015 -110.31176758 197.71130371 C-105.88645771 189.28579942 -101.38613971 180.91726091 -96.66633606 172.6522522 C-94.41393424 168.69559902 -92.31500615 164.69262405 -90.31103516 160.60205078 C-87.45879782 154.8068231 -84.42333004 149.13652426 -81.31103516 143.47705078 C-76.04916714 133.90139907 -70.91277924 124.26355849 -65.81103516 114.60205078 C-55.81893333 95.68725875 -45.78740581 76.79510981 -35.49853516 58.03955078 C-31.2431699 50.28215902 -27.12329814 42.46217971 -23.06103516 34.60205078 C-18.93307281 26.61963222 -14.75184725 18.67222711 -10.43603516 10.78955078 C-9.9783374 9.9489209 -9.52063965 9.10829102 -9.04907227 8.2421875 C-8.62634033 7.47535645 -8.2036084 6.70852539 -7.76806641 5.91845703 C-7.40044189 5.25015869 -7.03281738 4.58186035 -6.65405273 3.89331055 C-4.62829707 0.61783496 -3.98000539 0.24938721 0 0 Z " fill="#EFD009" transform="translate(390.62353515625,123.77294921875)"/>
<path d="M0 0 C1.56047445 0.00015913 3.12095416 0.00585397 4.68139648 0.01586914 C5.5012352 0.01728409 6.32107391 0.01869904 7.16575623 0.02015686 C9.79470406 0.0257725 12.42356797 0.0383276 15.05249023 0.05102539 C16.8304838 0.05603838 18.60847869 0.06060163 20.38647461 0.06469727 C24.75434569 0.07574701 29.12215371 0.09302208 33.48999023 0.11352539 C32.97118556 3.97489478 32.28698214 6.99722469 30.36499023 10.38696289 C29.91470459 11.19472168 29.46441895 12.00248047 29.00048828 12.8347168 C28.50202393 13.71047363 28.00355957 14.58623047 27.48999023 15.48852539 C26.39040705 17.46141098 25.29287398 19.43544012 24.19702148 21.41040039 C23.60099121 22.48225586 23.00496094 23.55411133 22.39086914 24.65844727 C19.28450958 30.30463279 16.27203833 36.00007883 13.25820923 41.69604492 C11.43945241 45.13336332 9.61695404 48.5686969 7.79467773 52.00415039 C7.433423 52.68537964 7.07216827 53.36660889 6.69996643 54.06848145 C-1.03020957 68.63969322 -8.84063542 83.16830769 -16.67114258 97.68579102 C-22.83440224 109.11328215 -28.94841534 120.56583657 -35.0333252 132.03515625 C-41.87259779 144.92582709 -48.75483912 157.7929014 -55.65405273 170.65161133 C-57.55779884 174.20266629 -59.4582404 177.75547108 -61.35766602 181.30883789 C-71.94935762 201.11801073 -71.94935762 201.11801073 -77.31933594 210.9284668 C-78.78267548 213.60321477 -80.23846471 216.28196578 -81.69360352 218.96118164 C-83.61152057 222.48819292 -85.5677695 225.99064658 -87.54516602 229.48461914 C-88.49226338 231.19398716 -89.43889838 232.90361145 -90.38500977 234.61352539 C-90.83271729 235.38510986 -91.2804248 236.15669434 -91.74169922 236.95166016 C-92.13703857 237.67538818 -92.53237793 238.39911621 -92.93969727 239.14477539 C-93.29273926 239.76932617 -93.64578125 240.39387695 -94.00952148 241.03735352 C-95.25398425 246.19974928 -91.41298359 251.48908843 -89.01782227 255.92602539 C-88.67613007 256.56765625 -88.33443787 257.20928711 -87.98239136 257.87036133 C-86.87118333 259.95390381 -85.75324248 262.03374589 -84.63500977 264.11352539 C-83.85605298 265.57039042 -83.07740994 267.02742325 -82.29907227 268.48461914 C-77.61398829 277.24492912 -72.87598341 285.97567624 -68.09912109 294.6862793 C-63.77559441 302.58621795 -59.54312294 310.53330257 -55.32250977 318.48852539 C-54.96468414 319.16292664 -54.60685852 319.83732788 -54.2381897 320.53216553 C-51.28850942 326.09272766 -48.34202923 331.6549841 -45.39562988 337.21728516 C-42.83104459 342.05847072 -40.26523579 346.89900485 -37.69750977 351.73852539 C-37.33894897 352.41439697 -36.98038818 353.09026855 -36.61096191 353.78662109 C-31.85977636 362.73831716 -27.04964349 371.65510971 -22.17236328 380.53881836 C-17.57667388 388.93647377 -13.10560326 397.39887367 -8.63500977 405.86352539 C-2.93655952 416.6509812 2.7769949 427.42958134 8.55249023 438.17602539 C9.43686768 439.82586426 9.43686768 439.82586426 10.33911133 441.5090332 C10.87487793 442.50386719 11.41064453 443.49870117 11.96264648 444.52368164 C12.42936768 445.39130127 12.89608887 446.2589209 13.37695312 447.15283203 C14.34064504 449.05279703 14.34064504 449.05279703 15.48999023 450.11352539 C17.61667006 446.15609301 19.74144937 442.19764285 21.86499023 438.23852539 C22.19512115 437.62305847 22.52525208 437.00759155 22.86538696 436.37347412 C28.11935398 426.57455456 33.33150447 416.75408746 38.52401733 406.92248535 C44.26297277 396.05647464 50.03571158 385.21433186 55.95043945 374.44262695 C60.30481035 366.49504525 64.55767829 358.49495584 68.80249023 350.48852539 C69.16462616 349.80550354 69.52676208 349.12248169 69.89987183 348.41876221 C70.44322678 347.39392731 70.44322678 347.39392731 70.99755859 346.34838867 C71.72808137 344.97060724 72.45863146 343.59284029 73.18920898 342.21508789 C73.55058456 341.53358673 73.91196014 340.85208557 74.2842865 340.14993286 C79.70529385 329.9318401 85.17872391 319.74180807 90.6472168 309.54907227 C93.13774666 304.90589046 95.62574403 300.2613541 98.11352539 295.61669922 C99.35515342 293.29870279 100.59701186 290.98082977 101.83911133 288.66308594 C104.76581868 283.20162033 107.69082534 277.73927171 110.61010742 272.27383423 C111.98764261 269.69507269 113.36610007 267.11680469 114.74462891 264.53857422 C115.40085203 263.31063058 116.0566243 262.08244588 116.71191406 260.85400391 C117.62116819 259.14953451 118.5321083 257.44596483 119.44311523 255.74243164 C120.21896973 254.28945679 120.21896973 254.28945679 121.01049805 252.80712891 C122.48999023 250.11352539 122.48999023 250.11352539 124.30541992 247.57421875 C125.79399215 245.1629824 125.79399215 245.1629824 124.82739258 242.59765625 C124.16537842 241.36801147 124.16537842 241.36801147 123.48999023 240.11352539 C122.92658936 238.96025757 122.92658936 238.96025757 122.35180664 237.78369141 C121.93592285 236.98632568 121.52003906 236.18895996 121.09155273 235.36743164 C120.6189502 234.46017334 120.14634766 233.55291504 119.65942383 232.61816406 C119.14976074 231.6472583 118.64009766 230.67635254 118.11499023 229.67602539 C117.57825684 228.65033447 117.04152344 227.62464355 116.48852539 226.56787109 C112.53991408 219.04865789 108.49313102 211.58733665 104.40551758 204.14306641 C99.76906626 195.67589305 95.24914691 187.14890201 90.73999023 178.61352539 C90.36007935 177.89453064 89.98016846 177.17553589 89.58874512 176.43475342 C88.81932919 174.97860057 88.04992003 173.52244415 87.28051758 172.06628418 C86.89847168 171.34324097 86.51642578 170.62019775 86.12280273 169.87524414 C85.7401123 169.15091187 85.35742188 168.42657959 84.96313477 167.68029785 C81.20729302 160.57384992 77.43686626 153.47521397 73.65686035 146.3815918 C72.97098209 145.09421397 72.28550591 143.80662182 71.60046387 142.51879883 C70.6506454 140.73339921 69.69925374 138.9488368 68.74780273 137.16430664 C67.89943848 135.56643311 67.89943848 135.56643311 67.03393555 133.9362793 C65.75406985 131.59633508 64.40121245 129.34978673 62.98217773 127.09399414 C61.2071538 123.54859292 61.39531878 122.82598967 62.48999023 119.11352539 C63.59965955 116.72330545 64.7418561 114.41751226 65.98217773 112.09790039 C66.32878448 111.44146545 66.67539124 110.78503052 67.03250122 110.10870361 C67.76389369 108.72867518 68.4986518 107.35042583 69.23657227 105.97387695 C70.36555574 103.86246779 71.47702984 101.74245373 72.58764648 99.62133789 C73.30144724 98.27963665 74.01625636 96.93847128 74.73217773 95.59790039 C75.22921707 94.64485016 75.22921707 94.64485016 75.73629761 93.67254639 C78.14614054 89.22814196 78.14614054 89.22814196 81.48999023 88.11352539 C81.94212891 88.96769043 82.39426758 89.82185547 82.86010742 90.7019043 C93.76008439 111.30650872 93.76008439 111.30650872 104.86499023 131.80102539 C109.12356865 139.56049456 113.26419893 147.37395422 117.34912109 155.22607422 C120.63346049 161.52247922 124.00960934 167.76373194 127.42749023 173.98852539 C131.54174442 181.48348457 135.55585175 189.0224993 139.48999023 196.61352539 C143.51022681 204.36919332 147.61097226 212.07403539 151.80249023 219.73852539 C152.30022949 220.65375977 152.79796875 221.56899414 153.31079102 222.51196289 C155.44625618 226.42924931 157.59776829 230.32774771 159.86889648 234.16821289 C160.52760742 235.30516602 161.18631836 236.44211914 161.86499023 237.61352539 C162.42959961 238.55196289 162.99420898 239.49040039 163.57592773 240.45727539 C164.84752169 244.15250569 164.10812924 245.56903043 162.48999023 249.11352539 C160.90062845 252.24154917 159.20468896 255.30272133 157.48999023 258.36352539 C151.57878387 269.04607175 145.85468352 279.82057602 140.17822266 290.62927246 C135.73771531 299.08371177 131.21911198 307.47961374 126.48884583 315.7762146 C124.43818975 319.38076117 122.49539632 323.01122595 120.67749023 326.73852539 C117.90621904 332.39558312 114.89777879 337.90653288 111.86499023 343.42602539 C107.6458434 351.10829835 103.52127812 358.83104731 99.48999023 366.61352539 C95.05108877 375.17871942 90.49058999 383.66816707 85.84936523 392.12524414 C82.24931294 398.69392594 78.74138326 405.30568859 75.27197266 411.9440918 C72.14293064 417.91427666 68.92227425 423.83058449 65.67749023 429.73852539 C61.31688166 437.68314763 57.08683634 445.68680573 52.92749023 453.73852539 C48.79969817 461.72102877 44.61829978 469.66835372 40.30249023 477.55102539 C39.84479248 478.39165527 39.38709473 479.23228516 38.91552734 480.09838867 C38.28142944 481.24863525 38.28142944 481.24863525 37.63452148 482.42211914 C37.26689697 483.09041748 36.89927246 483.75871582 36.52050781 484.44726562 C35.48999023 486.11352539 35.48999023 486.11352539 33.48999023 488.11352539 C30.69314227 488.28877594 27.99670944 488.34495728 25.20092773 488.30883789 C23.97329208 488.30459305 23.97329208 488.30459305 22.72085571 488.30026245 C20.1020863 488.28905071 17.48365659 488.26394468 14.86499023 488.23852539 C13.09155767 488.22849686 11.31811975 488.21937079 9.54467773 488.21118164 C5.19298397 488.18910817 0.84154473 488.15457183 -3.51000977 488.11352539 C-10.44458243 475.46386104 -17.30871906 462.77830369 -24.10186768 450.05224609 C-27.98307666 442.78410868 -31.91063599 435.54655217 -35.94750977 428.36352539 C-38.90588585 423.09518442 -41.72109001 417.7866751 -44.38500977 412.36352539 C-47.3973317 406.23262677 -50.59239875 400.2233853 -53.88500977 394.23852539 C-59.17366504 384.62419548 -64.32618856 374.94257374 -69.44750977 365.23852539 C-77.75347116 349.50794395 -86.1691965 333.84066299 -94.72875977 318.24633789 C-99.51886791 309.51221246 -104.2241842 300.77984051 -108.61938477 291.84008789 C-111.04496804 286.99162244 -113.66042432 282.24520494 -116.26000977 277.48852539 C-116.76749756 276.5572583 -117.27498535 275.62599121 -117.79785156 274.66650391 C-120.40773458 269.89382968 -123.05408096 265.14662856 -125.76391602 260.42993164 C-126.27792969 259.5251709 -126.79194336 258.62041016 -127.3215332 257.68823242 C-128.3009467 255.96740864 -129.29199917 254.2531423 -130.29614258 252.54663086 C-130.73410156 251.77335449 -131.17206055 251.00007812 -131.62329102 250.20336914 C-132.01299072 249.53168701 -132.40269043 248.86000488 -132.80419922 248.16796875 C-134.03083285 244.59753567 -132.8788876 241.94396433 -131.39355469 238.60009766 C-130.93053955 237.71894287 -130.46752441 236.83778809 -129.99047852 235.92993164 C-129.46945557 234.93227783 -128.94843262 233.93462402 -128.41162109 232.90673828 C-127.84596436 231.84060303 -127.28030762 230.77446777 -126.69750977 229.67602539 C-126.10929443 228.55639404 -125.5210791 227.4367627 -124.91503906 226.28320312 C-120.8103166 218.49629507 -116.61638608 210.76021956 -112.37719727 203.04589844 C-107.73124014 194.571966 -103.21033918 186.03380418 -98.69750977 177.48852539 C-92.52072689 165.79427463 -86.31514886 154.11683777 -80.06030273 142.46411133 C-76.84561299 136.47446499 -73.63737103 130.48153509 -70.44360352 124.48071289 C-69.93301392 123.52147667 -69.93301392 123.52147667 -69.41210938 122.54286194 C-69.07171631 121.90336105 -68.73132324 121.26386017 -68.38061523 120.60498047 C-67.69459725 119.31615297 -67.00856215 118.02733458 -66.32250977 116.73852539 C-65.81690521 115.78869278 -65.81690521 115.78869278 -65.30108643 114.81967163 C-61.00135494 106.74559903 -56.66023362 98.69589392 -52.26000977 90.67602539 C-47.72305495 82.40665384 -43.33726479 74.06654452 -38.99584961 65.69311523 C-35.24449217 58.47560546 -31.37560886 51.32989027 -27.45605469 44.20263672 C-21.64130834 33.59305977 -16.01943328 22.88072876 -10.38842773 12.17285156 C-9.63338507 10.74031422 -8.87833963 9.30777835 -8.12329102 7.87524414 C-7.59758766 6.87219238 -7.59758766 6.87219238 -7.06126404 5.84887695 C-4.04493976 0.13082681 -4.04493976 0.13082681 0 0 Z " fill="#EFD009" transform="translate(315.510009765625,123.886474609375)"/>
</svg>
