<?xml version="1.0" encoding="UTF-8"?>
<!DOCTYPE svg PUBLIC "-//W3C//DTD SVG 1.1//EN" "http://www.w3.org/Graphics/SVG/1.1/DTD/svg11.dtd">
<svg xmlns="http://www.w3.org/2000/svg" version="1.1" width="200px" height="227px" style="shape-rendering:geometricPrecision; text-rendering:geometricPrecision; image-rendering:optimizeQuality; fill-rule:evenodd; clip-rule:evenodd" xmlns:xlink="http://www.w3.org/1999/xlink">
<g><path style="opacity:0.137" fill="#3d3d3d" d="M 72.5,4.5 C 77.6405,3.51192 82.9738,3.17859 88.5,3.5C 88.7373,4.79105 88.404,5.79105 87.5,6.5C 82.9443,4.55833 77.9443,3.89166 72.5,4.5 Z"/></g>
<g><path style="opacity:0.824" fill="#242424" d="M 124.5,11.5 C 122.366,10.2965 121.032,8.46319 120.5,6C 115.167,5.33333 109.833,5.33333 104.5,6C 103.956,6.71719 103.289,7.21719 102.5,7.5C 102.539,6.41683 102.873,5.41683 103.5,4.5C 109.137,3.33676 114.804,3.17009 120.5,4C 122.12,6.37256 123.454,8.87256 124.5,11.5 Z"/></g>
<g><path style="opacity:0.998" fill="#0d0d0d" d="M 72.5,4.5 C 77.9443,3.89166 82.9443,4.55833 87.5,6.5C 81.7835,18.2653 75.7835,29.9319 69.5,41.5C 57.4013,63.525 45.4013,85.6917 33.5,108C 49.3333,137.167 65.1667,166.333 81,195.5C 96.8263,165.989 112.326,136.822 127.5,108C 126.748,107.329 126.414,106.496 126.5,105.5C 126.715,103.821 126.048,102.821 124.5,102.5C 119.052,93.5333 114.218,84.2 110,74.5C 109.25,73.8742 108.416,73.3742 107.5,73C 108.171,72.0138 108.171,70.8471 107.5,69.5C 107.843,67.5168 107.176,66.1834 105.5,65.5C 105.167,65.5 104.833,65.5 104.5,65.5C 104.737,64.209 104.404,63.209 103.5,62.5C 99.752,58.3379 99.752,54.1712 103.5,50C 102.366,48.984 102.699,48.3173 104.5,48C 104.167,47.6667 103.833,47.3333 103.5,47C 105.632,46.082 106.299,44.7487 105.5,43C 106.993,41.6319 108.493,41.4652 110,42.5C 121.635,64.2701 133.135,86.1034 144.5,108C 126.189,142.286 107.855,176.619 89.5,211C 83.5837,211.807 77.7504,211.641 72,210.5C 54.1542,177.473 36.3209,144.473 18.5,111.5C 18.7373,110.209 18.404,109.209 17.5,108.5C 17.5,108.167 17.5,107.833 17.5,107.5C 18.404,106.791 18.7373,105.791 18.5,104.5C 19.9063,104.027 20.573,103.027 20.5,101.5C 25.5651,91.0366 30.8985,80.7033 36.5,70.5C 37.9063,70.0269 38.573,69.0269 38.5,67.5C 41.5785,61.0087 44.9118,54.6754 48.5,48.5C 50.4077,47.5144 51.4077,45.8477 51.5,43.5C 57.7552,29.9826 64.7552,16.9826 72.5,4.5 Z"/></g>
<g><path style="opacity:0.997" fill="#0d0d0d" d="M 124.5,11.5 C 142.121,43.2381 159.121,75.4048 175.5,108C 157.656,142.186 139.656,176.352 121.5,210.5C 119.306,211.632 116.973,212.299 114.5,212.5C 111.329,211.655 108.329,211.322 105.5,211.5C 105.5,210.5 105.5,209.5 105.5,208.5C 105.833,207.833 106.167,207.167 106.5,206.5C 107.906,206.027 108.573,205.027 108.5,203.5C 112.227,195.714 116.227,188.047 120.5,180.5C 122.931,178.954 124.264,176.621 124.5,173.5C 128.373,165.435 132.706,157.102 137.5,148.5C 139.931,146.954 141.264,144.621 141.5,141.5C 146.671,130.351 152.671,119.185 159.5,108C 154.8,98.7858 149.8,89.2858 144.5,79.5C 144.715,77.8212 144.048,76.8212 142.5,76.5C 142.056,74.8868 141.056,73.7202 139.5,73C 140.299,71.2513 139.632,69.918 137.5,69C 138.598,68.2303 138.598,67.397 137.5,66.5C 137.511,62.6871 135.845,60.0204 132.5,58.5C 125.934,46.6695 119.268,34.0028 112.5,20.5C 96.5791,49.3405 80.9124,78.3405 65.5,107.5C 74.0786,124.325 82.912,140.992 92,157.5C 91.3408,162.839 89.5074,167.839 86.5,172.5C 85.0413,172.567 83.7079,172.234 82.5,171.5C 76.1815,159.531 69.8482,147.531 63.5,135.5C 63.7148,133.821 63.0481,132.821 61.5,132.5C 56.9436,124.446 52.6103,116.279 48.5,108C 50.456,103.253 52.7893,98.7532 55.5,94.5C 56.9063,94.0269 57.573,93.0269 57.5,91.5C 67.738,70.9847 77.4047,52.6513 86.5,36.5C 87.9063,36.0269 88.573,35.0269 88.5,33.5C 92.6762,24.4753 97.3429,15.8086 102.5,7.5C 103.289,7.21719 103.956,6.71719 104.5,6C 109.833,5.33333 115.167,5.33333 120.5,6C 121.032,8.46319 122.366,10.2965 124.5,11.5 Z"/></g>
<g><path style="opacity:0.09" fill="#565656" d="M 88.5,33.5 C 88.573,35.0269 87.9063,36.0269 86.5,36.5C 86.427,34.9731 87.0937,33.9731 88.5,33.5 Z"/></g>
<g><path style="opacity:0.012" fill="#a9aaa9" d="M 69.5,41.5 C 70.8333,42.1667 70.8333,42.1667 69.5,41.5 Z"/></g>
<g><path style="opacity:0.631" fill="#3e3e3e" d="M 51.5,43.5 C 51.4077,45.8477 50.4077,47.5144 48.5,48.5C 48.7497,46.326 49.7497,44.6594 51.5,43.5 Z"/></g>
<g><path style="opacity:0.843" fill="#454545" d="M 132.5,58.5 C 135.845,60.0204 137.511,62.6871 137.5,66.5C 135.347,64.2063 133.68,61.5396 132.5,58.5 Z"/></g>
<g><path style="opacity:0.012" fill="#959595" d="M 103.5,62.5 C 104.404,63.209 104.737,64.209 104.5,65.5C 103.733,64.828 103.066,63.9947 102.5,63C 102.728,62.6012 103.062,62.4346 103.5,62.5 Z"/></g>
<g><path style="opacity:0.843" fill="#3f3e3f" d="M 105.5,65.5 C 107.176,66.1834 107.843,67.5168 107.5,69.5C 105.238,68.6551 104.571,67.3217 105.5,65.5 Z"/></g>
<g><path style="opacity:0.027" fill="#706f70" d="M 38.5,67.5 C 38.573,69.0269 37.9063,70.0269 36.5,70.5C 36.427,68.9731 37.0937,67.9731 38.5,67.5 Z"/></g>
<g><path style="opacity:0.404" fill="#575757" d="M 142.5,76.5 C 144.048,76.8212 144.715,77.8212 144.5,79.5C 143.599,78.7095 142.932,77.7095 142.5,76.5 Z"/></g>
<g><path style="opacity:0.192" fill="#636363" d="M 57.5,91.5 C 57.573,93.0269 56.9063,94.0269 55.5,94.5C 55.427,92.9731 56.0937,91.9731 57.5,91.5 Z"/></g>
<g><path style="opacity:0.192" fill="#606060" d="M 20.5,101.5 C 20.573,103.027 19.9063,104.027 18.5,104.5C 18.427,102.973 19.0937,101.973 20.5,101.5 Z"/></g>
<g><path style="opacity:0.259" fill="#5f5f5f" d="M 124.5,102.5 C 126.048,102.821 126.715,103.821 126.5,105.5C 125.599,104.71 124.932,103.71 124.5,102.5 Z"/></g>
<g><path style="opacity:0.259" fill="#545454" d="M 18.5,104.5 C 18.7373,105.791 18.404,106.791 17.5,107.5C 17.0618,107.565 16.7284,107.399 16.5,107C 17.0659,106.005 17.7326,105.172 18.5,104.5 Z"/></g>
<g><path style="opacity:0.137" fill="#6c6c6c" d="M 17.5,108.5 C 18.404,109.209 18.7373,110.209 18.5,111.5C 17.7326,110.828 17.0659,109.995 16.5,109C 16.7284,108.601 17.0618,108.435 17.5,108.5 Z"/></g>
<g><path style="opacity:0.404" fill="#575757" d="M 61.5,132.5 C 63.0481,132.821 63.7148,133.821 63.5,135.5C 62.5987,134.71 61.9321,133.71 61.5,132.5 Z"/></g>
<g><path style="opacity:0.478" fill="#474747" d="M 141.5,141.5 C 141.264,144.621 139.931,146.954 137.5,148.5C 138.079,145.669 139.412,143.336 141.5,141.5 Z"/></g>
<g><path style="opacity:0.192" fill="#676767" d="M 82.5,171.5 C 83.7079,172.234 85.0413,172.567 86.5,172.5C 86.0831,173.124 85.4164,173.457 84.5,173.5C 83.2867,173.253 82.62,172.586 82.5,171.5 Z"/></g>
<g><path style="opacity:0.631" fill="#3c3c3c" d="M 124.5,173.5 C 124.264,176.621 122.931,178.954 120.5,180.5C 121.079,177.669 122.412,175.336 124.5,173.5 Z"/></g>
<g><path style="opacity:0.027" fill="#727272" d="M 108.5,203.5 C 108.573,205.027 107.906,206.027 106.5,206.5C 106.427,204.973 107.094,203.973 108.5,203.5 Z"/></g>
<g><path style="opacity:0.137" fill="#616161" d="M 105.5,208.5 C 105.5,209.5 105.5,210.5 105.5,211.5C 103.443,211.043 103.443,210.043 105.5,208.5 Z"/></g>
</svg>
