<?xml version="1.0" encoding="UTF-8"?>
<!DOCTYPE svg PUBLIC "-//W3C//DTD SVG 1.1//EN" "http://www.w3.org/Graphics/SVG/1.1/DTD/svg11.dtd">
<svg xmlns="http://www.w3.org/2000/svg" version="1.1" width="342px" height="388px" style="shape-rendering:geometricPrecision; text-rendering:geometricPrecision; image-rendering:optimizeQuality; fill-rule:evenodd; clip-rule:evenodd" xmlns:xlink="http://www.w3.org/1999/xlink">
<g><path style="opacity:1" fill="#fdfdfd" d="M -0.5,-0.5 C 113.5,-0.5 227.5,-0.5 341.5,-0.5C 341.5,128.833 341.5,258.167 341.5,387.5C 227.5,387.5 113.5,387.5 -0.5,387.5C -0.5,258.167 -0.5,128.833 -0.5,-0.5 Z"/></g>
<g><path style="opacity:1" fill="#414141" d="M 124.5,8.5 C 133.318,7.5067 142.318,7.17336 151.5,7.5C 151.715,9.17876 151.048,10.1788 149.5,10.5C 141.567,8.53163 133.234,7.86496 124.5,8.5 Z"/></g>
<g><path style="opacity:1" fill="#060606" d="M 124.5,8.5 C 133.234,7.86496 141.567,8.53163 149.5,10.5C 149.167,11.1667 148.833,11.8333 148.5,12.5C 146.464,15.5789 144.798,18.9122 143.5,22.5C 142.326,23.5137 141.66,24.847 141.5,26.5C 139.782,28.2228 138.449,30.2228 137.5,32.5C 135.909,35.3516 134.576,38.3516 133.5,41.5C 131.659,43.8485 130.326,46.5152 129.5,49.5C 128.094,49.9731 127.427,50.9731 127.5,52.5C 126.094,52.9731 125.427,53.9731 125.5,55.5C 123.248,59.6741 121.248,64.0074 119.5,68.5C 117.738,69.2623 116.738,70.5956 116.5,72.5C 114.909,75.3516 113.576,78.3516 112.5,81.5C 110.025,82.6874 109.025,84.6874 109.5,87.5C 107.738,88.2623 106.738,89.5956 106.5,91.5C 104.992,93.1815 103.992,95.1815 103.5,97.5C 101.992,99.1815 100.992,101.181 100.5,103.5C 99.0937,103.973 98.427,104.973 98.5,106.5C 96.7549,108.033 95.7549,110.033 95.5,112.5C 92.9922,116.182 90.9922,120.182 89.5,124.5C 87.058,126.121 85.7247,128.454 85.5,131.5C 84.1302,133.25 83.1302,135.25 82.5,137.5C 81.0937,137.973 80.427,138.973 80.5,140.5C 79.1302,142.25 78.1302,144.25 77.5,146.5C 75.0246,147.687 74.0246,149.687 74.5,152.5C 72.7497,153.659 71.7497,155.326 71.5,157.5C 68.2465,163.006 65.2465,168.673 62.5,174.5C 60.7497,175.659 59.7497,177.326 59.5,179.5C 57.8996,181.571 57.3996,183.905 58,186.5C 63.4629,196.428 68.6296,206.428 73.5,216.5C 73.5792,217.93 73.2458,219.264 72.5,220.5C 72.8457,221.696 73.3457,221.696 74,220.5C 74.3333,222.167 74.6667,223.833 75,225.5C 75.7412,226.641 76.5745,226.641 77.5,225.5C 78.1411,226.993 79.1411,227.993 80.5,228.5C 81.3382,228.842 81.6716,229.508 81.5,230.5C 81.6596,232.153 82.3263,233.486 83.5,234.5C 83.3284,235.492 83.6618,236.158 84.5,236.5C 85.2345,239.272 85.4012,241.939 85,244.5C 85.704,242.273 86.8706,241.94 88.5,243.5C 88.427,245.027 89.0937,246.027 90.5,246.5C 91.8333,249.833 93.1667,253.167 94.5,256.5C 95.2977,258.966 96.631,260.966 98.5,262.5C 98.427,264.027 99.0937,265.027 100.5,265.5C 101.11,266.391 101.443,267.391 101.5,268.5C 101.427,270.027 102.094,271.027 103.5,271.5C 105.231,275.295 107.231,278.962 109.5,282.5C 109.455,285.077 110.455,287.077 112.5,288.5C 113.492,290.456 114.492,292.456 115.5,294.5C 115.725,297.546 117.058,299.879 119.5,301.5C 120.167,302.5 120.833,303.5 121.5,304.5C 121.357,306.262 121.691,307.929 122.5,309.5C 121.975,310.192 121.308,310.692 120.5,311C 122.193,311.847 123.86,312.68 125.5,313.5C 126.828,315.793 128.161,318.127 129.5,320.5C 129.427,322.027 130.094,323.027 131.5,323.5C 132.584,326.004 133.917,328.337 135.5,330.5C 135.709,331.922 136.209,333.255 137,334.5C 137.977,335.774 138.811,335.774 139.5,334.5C 140.906,334.027 141.573,333.027 141.5,331.5C 142.441,329.95 143.107,328.284 143.5,326.5C 144.906,326.027 145.573,325.027 145.5,323.5C 145.932,322.29 146.599,321.29 147.5,320.5C 148.552,320.649 149.552,320.483 150.5,320C 149.483,318.951 149.316,317.784 150,316.5C 152.262,314.616 154.428,312.616 156.5,310.5C 155.833,309.833 155.167,309.167 154.5,308.5C 156.005,307.158 156.672,305.492 156.5,303.5C 158.309,299.407 160.309,295.407 162.5,291.5C 163.906,291.027 164.573,290.027 164.5,288.5C 166.419,282.989 169.086,277.989 172.5,273.5C 173.458,273.047 174.292,272.381 175,271.5C 175.333,271.833 175.667,272.167 176,272.5C 176.326,269.699 176.826,266.699 177.5,263.5C 178.931,262.22 179.598,260.553 179.5,258.5C 180.338,258.158 180.672,257.492 180.5,256.5C 181.878,255.455 182.878,254.122 183.5,252.5C 185.25,251.341 186.25,249.674 186.5,247.5C 187.758,245.313 188.758,242.98 189.5,240.5C 190.861,238.15 192.194,235.816 193.5,233.5C 194.906,233.027 195.573,232.027 195.5,230.5C 196.242,228.02 197.242,225.687 198.5,223.5C 199.906,223.027 200.573,222.027 200.5,220.5C 203.78,217.612 205.78,213.945 206.5,209.5C 207.167,208.167 207.833,206.833 208.5,205.5C 210.199,203.434 211.532,201.1 212.5,198.5C 213.906,198.027 214.573,197.027 214.5,195.5C 215.01,192.914 216.01,190.581 217.5,188.5C 220.326,187.113 220.993,185.113 219.5,182.5C 218.857,180.924 217.857,179.59 216.5,178.5C 216.008,176.181 215.008,174.181 213.5,172.5C 213.573,170.973 212.906,169.973 211.5,169.5C 211.672,168.508 211.338,167.842 210.5,167.5C 209.439,164.378 208.105,161.378 206.5,158.5C 206.573,156.973 205.906,155.973 204.5,155.5C 203.161,153.127 201.828,150.793 200.5,148.5C 197.033,140.661 193.033,133.328 188.5,126.5C 188.245,124.033 187.245,122.033 185.5,120.5C 182.736,114.636 179.736,108.969 176.5,103.5C 175.213,100.594 174.213,97.5939 173.5,94.5C 174.308,91.5498 175.642,88.8831 177.5,86.5C 179.396,84.1632 180.73,81.4965 181.5,78.5C 183.258,76.8593 184.758,74.8593 186,72.5C 186.383,73.056 186.883,73.3893 187.5,73.5C 188.828,76.4971 190.161,79.4971 191.5,82.5C 191.738,84.4044 192.738,85.7377 194.5,86.5C 195.11,87.391 195.443,88.391 195.5,89.5C 195.427,91.0269 196.094,92.0269 197.5,92.5C 198.529,94.5168 199.529,96.5168 200.5,98.5C 200.71,101.265 202.043,103.265 204.5,104.5C 205.973,108.251 207.64,111.917 209.5,115.5C 210.34,117.853 211.674,119.853 213.5,121.5C 214.11,122.391 214.443,123.391 214.5,124.5C 214.427,126.027 215.094,127.027 216.5,127.5C 217.167,129.167 217.833,130.833 218.5,132.5C 220.264,136.366 222.264,140.033 224.5,143.5C 224.942,146.343 225.942,149.009 227.5,151.5C 227.957,152.298 228.624,152.631 229.5,152.5C 231.008,154.181 232.008,156.181 232.5,158.5C 232.427,160.027 233.094,161.027 234.5,161.5C 236.867,165.233 238.867,169.233 240.5,173.5C 240.427,175.027 241.094,176.027 242.5,176.5C 243.11,177.391 243.443,178.391 243.5,179.5C 243.427,181.027 244.094,182.027 245.5,182.5C 246.124,182.917 246.457,183.584 246.5,184.5C 244.902,186.698 243.569,189.031 242.5,191.5C 241.463,192.93 240.796,194.597 240.5,196.5C 239.326,197.514 238.66,198.847 238.5,200.5C 237.094,200.973 236.427,201.973 236.5,203.5C 234.75,204.659 233.75,206.326 233.5,208.5C 233.167,209.167 232.833,209.833 232.5,210.5C 231.094,210.973 230.427,211.973 230.5,213.5C 229.173,216.471 227.84,219.471 226.5,222.5C 223.607,224.748 221.94,227.748 221.5,231.5C 220.094,231.973 219.427,232.973 219.5,234.5C 218.833,236.167 218.167,237.833 217.5,239.5C 216.094,239.973 215.427,240.973 215.5,242.5C 214.207,244.808 212.874,247.142 211.5,249.5C 211.672,250.492 211.338,251.158 210.5,251.5C 209.069,252.78 208.402,254.447 208.5,256.5C 207.662,256.842 207.328,257.508 207.5,258.5C 206.094,258.973 205.427,259.973 205.5,261.5C 204.13,263.25 203.13,265.25 202.5,267.5C 200.75,268.659 199.75,270.326 199.5,272.5C 198.094,272.973 197.427,273.973 197.5,275.5C 196.559,277.05 195.893,278.716 195.5,280.5C 193.178,281.802 191.845,283.802 191.5,286.5C 191.5,286.833 191.5,287.167 191.5,287.5C 190.094,287.973 189.427,288.973 189.5,290.5C 188.89,291.391 188.557,292.391 188.5,293.5C 186.229,295.612 184.896,298.279 184.5,301.5C 183.143,303.836 181.81,306.17 180.5,308.5C 179.094,308.973 178.427,309.973 178.5,311.5C 176.755,313.033 175.755,315.033 175.5,317.5C 173.755,319.033 172.755,321.033 172.5,323.5C 171.662,323.842 171.328,324.508 171.5,325.5C 169.069,327.046 167.736,329.379 167.5,332.5C 166.326,333.514 165.66,334.847 165.5,336.5C 164.094,336.973 163.427,337.973 163.5,339.5C 162.833,340.833 162.167,342.167 161.5,343.5C 160.094,343.973 159.427,344.973 159.5,346.5C 158.167,349.5 156.833,352.5 155.5,355.5C 153.654,357.03 152.654,359.03 152.5,361.5C 143.167,361.5 133.833,361.5 124.5,361.5C 124.771,359.62 124.104,358.287 122.5,357.5C 122.443,356.391 122.11,355.391 121.5,354.5C 121.573,352.973 120.906,351.973 119.5,351.5C 119.25,349.326 118.25,347.659 116.5,346.5C 116.267,344.938 115.6,343.605 114.5,342.5C 112.275,336.382 109.275,330.715 105.5,325.5C 105.573,323.973 104.906,322.973 103.5,322.5C 102.559,320.95 101.893,319.284 101.5,317.5C 101.34,315.847 100.674,314.514 99.5,313.5C 99.2624,311.596 98.2624,310.262 96.5,309.5C 95.5282,306.563 94.1948,303.897 92.5,301.5C 90.6081,296.047 87.9414,291.047 84.5,286.5C 84.2451,284.033 83.2451,282.033 81.5,280.5C 81.6716,279.508 81.3382,278.842 80.5,278.5C 79.2049,274.577 77.3716,270.91 75,267.5C 74.2917,266.619 73.4584,265.953 72.5,265.5C 72.5,264.833 72.5,264.167 72.5,263.5C 72.573,261.973 71.9063,260.973 70.5,260.5C 69.3583,256.883 67.6916,253.55 65.5,250.5C 65.573,248.973 64.9063,247.973 63.5,247.5C 62.6334,243.671 60.9668,240.337 58.5,237.5C 58.2041,235.597 57.5375,233.93 56.5,232.5C 55.1667,230.5 53.8333,228.5 52.5,226.5C 52.573,224.973 51.9063,223.973 50.5,223.5C 48.3256,217.818 45.6589,212.484 42.5,207.5C 40.4946,203.799 38.4946,200.132 36.5,196.5C 34.8466,193.193 33.1799,189.86 31.5,186.5C 31.9926,184.194 32.3259,181.861 32.5,179.5C 34.2624,178.738 35.2624,177.404 35.5,175.5C 36.3627,173.579 37.0293,171.579 37.5,169.5C 39.9884,166.534 41.9884,163.201 43.5,159.5C 43.3284,158.508 43.6618,157.842 44.5,157.5C 46.7271,156.599 47.7271,154.933 47.5,152.5C 49.9689,151.393 50.9689,149.393 50.5,146.5C 51.9063,146.027 52.573,145.027 52.5,143.5C 53.1667,141.833 53.8333,140.167 54.5,138.5C 54.3284,137.508 54.6618,136.842 55.5,136.5C 56.9063,136.027 57.573,135.027 57.5,133.5C 58.9063,133.027 59.573,132.027 59.5,130.5C 60.1098,129.609 60.4431,128.609 60.5,127.5C 62.7593,126.656 63.7593,124.989 63.5,122.5C 64.1098,121.609 64.4431,120.609 64.5,119.5C 66.2624,118.738 67.2624,117.404 67.5,115.5C 68.5612,112.378 69.8946,109.378 71.5,106.5C 72.9063,106.027 73.573,105.027 73.5,103.5C 74.9063,103.027 75.573,102.027 75.5,100.5C 78.0576,93.7164 81.3909,87.3831 85.5,81.5C 87.2575,79.8593 88.7575,77.8593 90,75.5C 90.3333,75.8333 90.6667,76.1667 91,76.5C 91.737,72.9531 93.5703,70.1198 96.5,68C 95.5842,67.7216 94.9175,67.2216 94.5,66.5C 95.3627,64.5786 96.0293,62.5786 96.5,60.5C 98.942,58.8791 100.275,56.5458 100.5,53.5C 100.5,53.1667 100.5,52.8333 100.5,52.5C 102.942,50.8791 104.275,48.5458 104.5,45.5C 104.992,43.1815 105.992,41.1815 107.5,39.5C 108.906,39.0269 109.573,38.0269 109.5,36.5C 112.327,32.0275 114.66,27.3609 116.5,22.5C 118.201,21.7886 119.201,20.4553 119.5,18.5C 120.132,14.5686 121.799,11.2353 124.5,8.5 Z"/></g>
<g><path style="opacity:1" fill="#060606" d="M 211.5,18.5 C 211.738,20.4044 212.738,21.7377 214.5,22.5C 214.755,24.9674 215.755,26.9674 217.5,28.5C 218.338,28.8417 218.672,29.5084 218.5,30.5C 219.611,33.8557 221.277,36.8557 223.5,39.5C 225.354,43.287 227.354,46.9537 229.5,50.5C 230.73,52.2972 231.396,54.2972 231.5,56.5C 231.427,58.0269 232.094,59.0269 233.5,59.5C 233.833,60.1667 234.167,60.8333 234.5,61.5C 234.427,63.0269 235.094,64.0269 236.5,64.5C 241.36,74.7093 246.694,84.7093 252.5,94.5C 252.427,96.0269 253.094,97.0269 254.5,97.5C 257.692,102.55 260.358,107.883 262.5,113.5C 262.427,115.027 263.094,116.027 264.5,116.5C 264.66,118.153 265.326,119.486 266.5,120.5C 266.427,122.027 267.094,123.027 268.5,123.5C 269.945,125.571 270.945,127.904 271.5,130.5C 271.241,132.989 272.241,134.656 274.5,135.5C 276.403,138.299 278.069,141.299 279.5,144.5C 279.992,146.819 280.992,148.819 282.5,150.5C 284.405,153.304 286.071,156.304 287.5,159.5C 287.427,161.027 288.094,162.027 289.5,162.5C 291.105,165.378 292.439,168.378 293.5,171.5C 293.427,173.027 294.094,174.027 295.5,174.5C 296.345,175.671 297.011,177.005 297.5,178.5C 297.427,180.027 298.094,181.027 299.5,181.5C 300.301,183.042 300.634,184.708 300.5,186.5C 299.094,186.973 298.427,187.973 298.5,189.5C 296.058,191.121 294.725,193.454 294.5,196.5C 292.65,199.369 290.983,202.369 289.5,205.5C 287.917,207.663 286.584,209.996 285.5,212.5C 285.5,212.833 285.5,213.167 285.5,213.5C 283.755,215.033 282.755,217.033 282.5,219.5C 280.428,221.35 279.095,223.683 278.5,226.5C 276.738,227.262 275.738,228.596 275.5,230.5C 275.443,231.609 275.11,232.609 274.5,233.5C 272.755,235.033 271.755,237.033 271.5,239.5C 269.088,242.368 267.421,245.701 266.5,249.5C 265.094,249.973 264.427,250.973 264.5,252.5C 263.094,252.973 262.427,253.973 262.5,255.5C 260.983,258.035 259.65,260.702 258.5,263.5C 256.541,267.142 254.541,270.809 252.5,274.5C 250.992,276.181 249.992,278.181 249.5,280.5C 246.106,285.911 243.106,291.578 240.5,297.5C 239.094,297.973 238.427,298.973 238.5,300.5C 238.443,301.609 238.11,302.609 237.5,303.5C 236.094,303.973 235.427,304.973 235.5,306.5C 234.326,307.514 233.66,308.847 233.5,310.5C 231.75,311.659 230.75,313.326 230.5,315.5C 230.5,315.833 230.5,316.167 230.5,316.5C 229.094,316.973 228.427,317.973 228.5,319.5C 227.094,319.973 226.427,320.973 226.5,322.5C 226.5,323.167 226.5,323.833 226.5,324.5C 223.214,326.978 221.214,330.311 220.5,334.5C 218.659,336.849 217.326,339.515 216.5,342.5C 214.583,345.331 212.917,348.331 211.5,351.5C 210.4,352.605 209.733,353.938 209.5,355.5C 208.094,355.973 207.427,356.973 207.5,358.5C 207.167,359.167 206.833,359.833 206.5,360.5C 198.167,360.5 189.833,360.5 181.5,360.5C 181.5,359.5 181.5,358.5 181.5,357.5C 182.906,357.027 183.573,356.027 183.5,354.5C 184.242,352.02 185.242,349.687 186.5,347.5C 187.906,347.027 188.573,346.027 188.5,344.5C 188.975,342.216 189.975,340.216 191.5,338.5C 192.906,338.027 193.573,337.027 193.5,335.5C 194.758,333.313 195.758,330.98 196.5,328.5C 197.906,328.027 198.573,327.027 198.5,325.5C 199.5,323.5 200.5,321.5 201.5,319.5C 202.906,319.027 203.573,318.027 203.5,316.5C 204.338,316.158 204.672,315.492 204.5,314.5C 206.408,313.514 207.408,311.848 207.5,309.5C 207.5,309.167 207.5,308.833 207.5,308.5C 209.588,306.664 210.921,304.331 211.5,301.5C 211.5,301.167 211.5,300.833 211.5,300.5C 212.906,300.027 213.573,299.027 213.5,297.5C 214.567,295.036 215.9,292.703 217.5,290.5C 219.245,288.967 220.245,286.967 220.5,284.5C 222.9,282.704 224.567,280.37 225.5,277.5C 226.5,274.833 227.5,272.167 228.5,269.5C 228.328,268.508 228.662,267.842 229.5,267.5C 230.674,266.486 231.34,265.153 231.5,263.5C 231.328,262.508 231.662,261.842 232.5,261.5C 236.203,259.792 237.87,256.792 237.5,252.5C 243.21,242.766 248.543,232.766 253.5,222.5C 254.906,222.027 255.573,221.027 255.5,219.5C 256.167,218.167 256.833,216.833 257.5,215.5C 258.674,214.486 259.34,213.153 259.5,211.5C 260.5,209.5 261.5,207.5 262.5,205.5C 263.906,205.027 264.573,204.027 264.5,202.5C 265.906,202.027 266.573,201.027 266.5,199.5C 266.893,197.716 267.559,196.05 268.5,194.5C 269.674,193.486 270.34,192.153 270.5,190.5C 272.262,189.738 273.262,188.404 273.5,186.5C 273.691,182.712 272.358,179.712 269.5,177.5C 269.5,176.833 269.5,176.167 269.5,175.5C 269.573,173.973 268.906,172.973 267.5,172.5C 267.011,171.005 266.345,169.671 265.5,168.5C 265.573,166.973 264.906,165.973 263.5,165.5C 263.443,164.391 263.11,163.391 262.5,162.5C 260.792,159.475 259.126,156.475 257.5,153.5C 256.416,150.996 255.083,148.663 253.5,146.5C 252.35,143.702 251.017,141.035 249.5,138.5C 248.532,135.9 247.199,133.566 245.5,131.5C 243.309,127.593 241.309,123.593 239.5,119.5C 239.573,117.973 238.906,116.973 237.5,116.5C 233.791,108.897 229.791,101.564 225.5,94.5C 224.241,90.353 222.241,86.6863 219.5,83.5C 217.158,78.7895 214.825,74.1228 212.5,69.5C 212.573,67.9731 211.906,66.9731 210.5,66.5C 207.399,59.1914 203.732,52.1914 199.5,45.5C 199.443,44.391 199.11,43.391 198.5,42.5C 198.426,39.3413 197.093,37.0079 194.5,35.5C 193.167,31.5 191.833,31.5 190.5,35.5C 189.069,36.7804 188.402,38.4471 188.5,40.5C 185.753,43.7226 183.753,47.3893 182.5,51.5C 181.094,51.9731 180.427,52.9731 180.5,54.5C 179.662,54.8417 179.328,55.5084 179.5,56.5C 178.094,56.9731 177.427,57.9731 177.5,59.5C 176.559,61.0495 175.893,62.7162 175.5,64.5C 173.755,66.0326 172.755,68.0326 172.5,70.5C 171.662,70.8417 171.328,71.5084 171.5,72.5C 169.069,74.046 167.736,76.3793 167.5,79.5C 164.982,82.367 163.315,85.7003 162.5,89.5C 158.476,94.2096 155.476,99.5429 153.5,105.5C 152.094,105.973 151.427,106.973 151.5,108.5C 151.5,108.833 151.5,109.167 151.5,109.5C 150.094,109.973 149.427,110.973 149.5,112.5C 148.662,112.842 148.328,113.508 148.5,114.5C 146.992,116.181 145.992,118.181 145.5,120.5C 144.069,121.78 143.402,123.447 143.5,125.5C 139.013,129.47 136.347,134.47 135.5,140.5C 132.009,144.667 129.342,149.333 127.5,154.5C 125.025,155.687 124.025,157.687 124.5,160.5C 123.094,160.973 122.427,161.973 122.5,163.5C 121.326,164.514 120.66,165.847 120.5,167.5C 117.756,170.646 115.756,174.313 114.5,178.5C 113.833,178.5 113.5,178.833 113.5,179.5C 111.688,181.713 111.355,184.047 112.5,186.5C 113.773,188.713 114.773,191.046 115.5,193.5C 115.427,195.027 116.094,196.027 117.5,196.5C 119.544,199.623 121.211,202.956 122.5,206.5C 122.427,208.027 123.094,209.027 124.5,209.5C 126.75,212.999 128.75,216.665 130.5,220.5C 130.427,222.027 131.094,223.027 132.5,223.5C 133.895,227.29 135.562,230.957 137.5,234.5C 137.755,236.967 138.755,238.967 140.5,240.5C 141.167,240.5 141.5,240.833 141.5,241.5C 141.427,243.027 142.094,244.027 143.5,244.5C 143.328,245.492 143.662,246.158 144.5,246.5C 144.229,248.38 144.896,249.713 146.5,250.5C 149.575,255.59 152.242,260.924 154.5,266.5C 154.427,268.027 155.094,269.027 156.5,269.5C 157.355,270.531 158.022,271.697 158.5,273C 158.43,273.765 158.097,274.265 157.5,274.5C 156.508,276.456 155.508,278.456 154.5,280.5C 153.833,281.833 153.167,283.167 152.5,284.5C 151.207,286.808 149.874,289.142 148.5,291.5C 147.356,293.1 146.189,294.767 145,296.5C 143.811,294.767 142.644,293.1 141.5,291.5C 140.532,288.9 139.199,286.566 137.5,284.5C 137.34,282.847 136.674,281.514 135.5,280.5C 135.573,278.973 134.906,277.973 133.5,277.5C 132.642,273.452 130.975,269.785 128.5,266.5C 128.573,264.973 127.906,263.973 126.5,263.5C 126.34,261.847 125.674,260.514 124.5,259.5C 123.35,256.702 122.017,254.035 120.5,251.5C 119.878,249.878 118.878,248.545 117.5,247.5C 117.245,245.033 116.245,243.033 114.5,241.5C 113.35,238.702 112.017,236.035 110.5,233.5C 109.126,231.142 107.793,228.808 106.5,226.5C 106.245,224.033 105.245,222.033 103.5,220.5C 103.5,220.167 103.5,219.833 103.5,219.5C 103.322,218.305 102.989,217.138 102.5,216C 102.892,214.989 103.559,214.489 104.5,214.5C 102.852,213.709 101.185,212.709 99.5,211.5C 98.8333,210.167 97.8333,209.167 96.5,208.5C 96.2451,206.033 95.2451,204.033 93.5,202.5C 93.5,202.167 93.5,201.833 93.5,201.5C 93.3404,199.847 92.6737,198.514 91.5,197.5C 91.3404,195.847 90.6737,194.514 89.5,193.5C 88.0242,191.231 86.5242,188.898 85,186.5C 84.235,184.934 84.4017,183.601 85.5,182.5C 87.3465,180.97 88.3465,178.97 88.5,176.5C 89.4013,175.71 90.0679,174.71 90.5,173.5C 91.8977,171.202 93.5643,169.035 95.5,167C 96.2335,165.234 96.5668,163.401 96.5,161.5C 97.4013,160.71 98.0679,159.71 98.5,158.5C 99.478,156.544 100.478,154.544 101.5,152.5C 102.674,151.486 103.34,150.153 103.5,148.5C 105.408,147.514 106.408,145.848 106.5,143.5C 106.328,142.508 106.662,141.842 107.5,141.5C 108.906,141.027 109.573,140.027 109.5,138.5C 112.186,133.128 114.853,127.795 117.5,122.5C 118.906,122.027 119.573,121.027 119.5,119.5C 120.674,118.486 121.34,117.153 121.5,115.5C 121.5,115.167 121.5,114.833 121.5,114.5C 122.906,114.027 123.573,113.027 123.5,111.5C 125.943,106.275 128.61,101.275 131.5,96.5C 133.969,95.3933 134.969,93.3933 134.5,90.5C 135.797,88.6287 136.797,86.6287 137.5,84.5C 139.093,83.6521 140.26,82.3187 141,80.5C 141.483,79.552 141.649,78.552 141.5,77.5C 142.486,75.5739 143.486,73.5739 144.5,71.5C 145.906,71.0269 146.573,70.0269 146.5,68.5C 147.13,66.2504 148.13,64.2504 149.5,62.5C 151.759,61.656 152.759,59.9893 152.5,57.5C 153.877,55.7105 154.877,53.7105 155.5,51.5C 156.906,51.0269 157.573,50.0269 157.5,48.5C 158.959,44.2478 160.959,40.2478 163.5,36.5C 165.104,35.713 165.771,34.3797 165.5,32.5C 166.167,31.1667 166.833,29.8333 167.5,28.5C 168.906,28.0269 169.573,27.0269 169.5,25.5C 170.401,24.7095 171.068,23.7095 171.5,22.5C 172.576,19.3516 173.909,16.3516 175.5,13.5C 176.906,13.0269 177.573,12.0269 177.5,10.5C 177.414,9.5041 177.748,8.67076 178.5,8C 187.833,7.33333 197.167,7.33333 206.5,8C 208.05,11.5979 209.716,15.0979 211.5,18.5 Z"/></g>
<g><path style="opacity:1" fill="#737373" d="M 177.5,10.5 C 177.573,12.0269 176.906,13.0269 175.5,13.5C 175.427,11.9731 176.094,10.9731 177.5,10.5 Z"/></g>
<g><path style="opacity:1" fill="#9e9e9e" d="M 148.5,12.5 C 148.657,13.8734 148.49,15.2068 148,16.5C 147.119,19.0139 145.619,21.0139 143.5,22.5C 144.798,18.9122 146.464,15.5789 148.5,12.5 Z"/></g>
<g><path style="opacity:1" fill="#666666" d="M 211.5,18.5 C 213.262,19.2623 214.262,20.5956 214.5,22.5C 212.738,21.7377 211.738,20.4044 211.5,18.5 Z"/></g>
<g><path style="opacity:1" fill="#4d4d4d" d="M 119.5,18.5 C 119.201,20.4553 118.201,21.7886 116.5,22.5C 116.554,20.368 117.554,19.0347 119.5,18.5 Z"/></g>
<g><path style="opacity:1" fill="#808080" d="M 171.5,22.5 C 171.068,23.7095 170.401,24.7095 169.5,25.5C 169.285,23.8212 169.952,22.8212 171.5,22.5 Z"/></g>
<g><path style="opacity:1" fill="#6f6f6f" d="M 169.5,25.5 C 169.573,27.0269 168.906,28.0269 167.5,28.5C 167.427,26.9731 168.094,25.9731 169.5,25.5 Z"/></g>
<g><path style="opacity:1" fill="#7e7e7e" d="M 214.5,22.5 C 216.245,24.0326 217.245,26.0326 217.5,28.5C 215.755,26.9674 214.755,24.9674 214.5,22.5 Z"/></g>
<g><path style="opacity:1" fill="#979797" d="M 141.5,26.5 C 141.658,29.5221 140.325,31.5221 137.5,32.5C 138.449,30.2228 139.782,28.2228 141.5,26.5 Z"/></g>
<g><path style="opacity:1" fill="#878787" d="M 194.5,35.5 C 193.167,34.1667 191.833,34.1667 190.5,35.5C 191.833,31.5 193.167,31.5 194.5,35.5 Z"/></g>
<g><path style="opacity:1" fill="#b0b0b0" d="M 218.5,30.5 C 221.773,32.5244 223.44,35.5244 223.5,39.5C 221.277,36.8557 219.611,33.8557 218.5,30.5 Z"/></g>
<g><path style="opacity:1" fill="#747474" d="M 165.5,32.5 C 165.771,34.3797 165.104,35.713 163.5,36.5C 163.66,34.847 164.326,33.5137 165.5,32.5 Z"/></g>
<g><path style="opacity:1" fill="#404040" d="M 194.5,35.5 C 197.093,37.0079 198.426,39.3413 198.5,42.5C 198.167,42.5 197.833,42.5 197.5,42.5C 196.227,40.2872 195.227,37.9538 194.5,35.5 Z"/></g>
<g><path style="opacity:1" fill="#818181" d="M 109.5,36.5 C 109.573,38.0269 108.906,39.0269 107.5,39.5C 107.427,37.9731 108.094,36.9731 109.5,36.5 Z"/></g>
<g><path style="opacity:1" fill="#cfcfcf" d="M 229.5,50.5 C 227.354,46.9537 225.354,43.287 223.5,39.5C 224.822,39.67 225.989,39.3366 227,38.5C 227.492,39.549 227.326,40.549 226.5,41.5C 227.358,44.6195 228.358,47.6195 229.5,50.5 Z"/></g>
<g><path style="opacity:1" fill="#9f9f9f" d="M 197.5,42.5 C 197.833,42.5 198.167,42.5 198.5,42.5C 199.11,43.391 199.443,44.391 199.5,45.5C 198.094,45.0269 197.427,44.0269 197.5,42.5 Z"/></g>
<g><path style="opacity:1" fill="#bebebe" d="M 133.5,41.5 C 133.708,45.0848 132.375,47.7515 129.5,49.5C 130.326,46.5152 131.659,43.8485 133.5,41.5 Z"/></g>
<g><path style="opacity:1" fill="#adadad" d="M 188.5,40.5 C 187.78,44.9449 185.78,48.6116 182.5,51.5C 183.753,47.3893 185.753,43.7226 188.5,40.5 Z"/></g>
<g><path style="opacity:1" fill="#6f6f6f" d="M 104.5,45.5 C 104.275,48.5458 102.942,50.8791 100.5,52.5C 101.468,49.8997 102.801,47.5664 104.5,45.5 Z"/></g>
<g><path style="opacity:1" fill="#5b5b5b" d="M 157.5,48.5 C 157.573,50.0269 156.906,51.0269 155.5,51.5C 155.427,49.9731 156.094,48.9731 157.5,48.5 Z"/></g>
<g><path style="opacity:1" fill="#8e8e8e" d="M 129.5,49.5 C 129.573,51.0269 128.906,52.0269 127.5,52.5C 127.427,50.9731 128.094,49.9731 129.5,49.5 Z"/></g>
<g><path style="opacity:1" fill="#8e8e8e" d="M 182.5,51.5 C 182.573,53.0269 181.906,54.0269 180.5,54.5C 180.427,52.9731 181.094,51.9731 182.5,51.5 Z"/></g>
<g><path style="opacity:1" fill="#7f7f7f" d="M 127.5,52.5 C 127.573,54.0269 126.906,55.0269 125.5,55.5C 125.427,53.9731 126.094,52.9731 127.5,52.5 Z"/></g>
<g><path style="opacity:1" fill="#656565" d="M 179.5,56.5 C 179.573,58.0269 178.906,59.0269 177.5,59.5C 177.427,57.9731 178.094,56.9731 179.5,56.5 Z"/></g>
<g><path style="opacity:1" fill="#4f4f4f" d="M 231.5,56.5 C 232.906,56.9731 233.573,57.9731 233.5,59.5C 232.094,59.0269 231.427,58.0269 231.5,56.5 Z"/></g>
<g><path style="opacity:1" fill="#616161" d="M 100.5,53.5 C 100.275,56.5458 98.942,58.8791 96.5,60.5C 97.4676,57.8997 98.8009,55.5664 100.5,53.5 Z"/></g>
<g><path style="opacity:1" fill="#414141" d="M 152.5,57.5 C 152.759,59.9893 151.759,61.656 149.5,62.5C 150.11,60.5659 151.11,58.8993 152.5,57.5 Z"/></g>
<g><path style="opacity:1" fill="#4a4a4a" d="M 234.5,61.5 C 235.906,61.9731 236.573,62.9731 236.5,64.5C 235.094,64.0269 234.427,63.0269 234.5,61.5 Z"/></g>
<g><path style="opacity:1" fill="#545454" d="M 96.5,60.5 C 96.0293,62.5786 95.3627,64.5786 94.5,66.5C 94.1667,66.5 93.8333,66.5 93.5,66.5C 93.7549,64.0326 94.7549,62.0326 96.5,60.5 Z"/></g>
<g><path style="opacity:1" fill="#232323" d="M 93.5,66.5 C 93.8333,66.5 94.1667,66.5 94.5,66.5C 94.9175,67.2216 95.5842,67.7216 96.5,68C 93.5703,70.1198 91.737,72.9531 91,76.5C 90.6667,76.1667 90.3333,75.8333 90,75.5C 88.7575,77.8593 87.2575,79.8593 85.5,81.5C 87.8995,76.3682 90.5662,71.3682 93.5,66.5 Z"/></g>
<g><path style="opacity:1" fill="#797979" d="M 210.5,66.5 C 211.906,66.9731 212.573,67.9731 212.5,69.5C 211.094,69.0269 210.427,68.0269 210.5,66.5 Z"/></g>
<g><path style="opacity:1" fill="#949494" d="M 119.5,68.5 C 119.262,70.4044 118.262,71.7377 116.5,72.5C 116.738,70.5956 117.738,69.2623 119.5,68.5 Z"/></g>
<g><path style="opacity:1" fill="#acacac" d="M 175.5,64.5 C 175.379,67.1048 174.379,69.1048 172.5,70.5C 172.755,68.0326 173.755,66.0326 175.5,64.5 Z"/></g>
<g><path style="opacity:1" fill="#7a7a7a" d="M 146.5,68.5 C 146.573,70.0269 145.906,71.0269 144.5,71.5C 144.427,69.9731 145.094,68.9731 146.5,68.5 Z"/></g>
<g><path style="opacity:1" fill="#666666" d="M 187.5,73.5 C 186.883,73.3893 186.383,73.056 186,72.5C 184.758,74.8593 183.258,76.8593 181.5,78.5C 181.992,75.5143 183.492,73.181 186,71.5C 187.03,71.8361 187.53,72.5028 187.5,73.5 Z"/></g>
<g><path style="opacity:1" fill="#a7a7a7" d="M 171.5,72.5 C 170.905,75.3171 169.572,77.6505 167.5,79.5C 167.736,76.3793 169.069,74.046 171.5,72.5 Z"/></g>
<g><path style="opacity:1" fill="#8c8c8c" d="M 112.5,81.5 C 111.492,83.5439 110.492,85.5439 109.5,87.5C 109.025,84.6874 110.025,82.6874 112.5,81.5 Z"/></g>
<g><path style="opacity:1" fill="#515051" d="M 141.5,77.5 C 141.649,78.552 141.483,79.552 141,80.5C 140.26,82.3187 139.093,83.6521 137.5,84.5C 138.079,81.6689 139.412,79.3356 141.5,77.5 Z"/></g>
<g><path style="opacity:1" fill="#505050" d="M 191.5,82.5 C 193.262,83.2623 194.262,84.5956 194.5,86.5C 192.738,85.7377 191.738,84.4044 191.5,82.5 Z"/></g>
<g><path style="opacity:1" fill="#565656" d="M 181.5,78.5 C 180.73,81.4965 179.396,84.1632 177.5,86.5C 177.896,83.279 179.229,80.6123 181.5,78.5 Z"/></g>
<g><path style="opacity:1" fill="#afafaf" d="M 219.5,83.5 C 222.241,86.6863 224.241,90.353 225.5,94.5C 224.542,94.0472 223.708,93.3805 223,92.5C 221.346,89.7068 220.179,86.7068 219.5,83.5 Z"/></g>
<g><path style="opacity:1" fill="#6b6b6b" d="M 195.5,89.5 C 196.906,89.9731 197.573,90.9731 197.5,92.5C 196.094,92.0269 195.427,91.0269 195.5,89.5 Z"/></g>
<g><path style="opacity:1" fill="#b3b3b3" d="M 106.5,91.5 C 106.913,94.3202 105.913,96.3202 103.5,97.5C 103.992,95.1815 104.992,93.1815 106.5,91.5 Z"/></g>
<g><path style="opacity:1" fill="#3c3c3c" d="M 134.5,90.5 C 134.969,93.3933 133.969,95.3933 131.5,96.5C 131.992,94.1815 132.992,92.1815 134.5,90.5 Z"/></g>
<g><path style="opacity:1" fill="#d3d3d3" d="M 162.5,89.5 C 162.33,90.8221 162.663,91.9887 163.5,93C 162.552,93.4828 161.552,93.6495 160.5,93.5C 160.66,95.1992 160.494,96.8659 160,98.5C 157.917,100.983 155.751,103.316 153.5,105.5C 155.476,99.5429 158.476,94.2096 162.5,89.5 Z"/></g>
<g><path style="opacity:1" fill="#858585" d="M 252.5,94.5 C 253.906,94.9731 254.573,95.9731 254.5,97.5C 253.094,97.0269 252.427,96.0269 252.5,94.5 Z"/></g>
<g><path style="opacity:1" fill="#c9c9c9" d="M 173.5,94.5 C 174.213,97.5939 175.213,100.594 176.5,103.5C 174.944,102.709 173.61,102.376 172.5,102.5C 172.534,99.747 172.867,97.0803 173.5,94.5 Z"/></g>
<g><path style="opacity:1" fill="#aaaaaa" d="M 200.5,98.5 C 202.413,100.12 203.747,102.12 204.5,104.5C 202.043,103.265 200.71,101.265 200.5,98.5 Z"/></g>
<g><path style="opacity:1" fill="#525252" d="M 75.5,100.5 C 75.573,102.027 74.9063,103.027 73.5,103.5C 73.427,101.973 74.0937,100.973 75.5,100.5 Z"/></g>
<g><path style="opacity:1" fill="#737373" d="M 73.5,103.5 C 73.573,105.027 72.9063,106.027 71.5,106.5C 71.427,104.973 72.0937,103.973 73.5,103.5 Z"/></g>
<g><path style="opacity:1" fill="#767676" d="M 100.5,103.5 C 100.573,105.027 99.9063,106.027 98.5,106.5C 98.427,104.973 99.0937,103.973 100.5,103.5 Z"/></g>
<g><path style="opacity:1" fill="#707070" d="M 153.5,105.5 C 153.573,107.027 152.906,108.027 151.5,108.5C 151.427,106.973 152.094,105.973 153.5,105.5 Z"/></g>
<g><path style="opacity:1" fill="#717171" d="M 151.5,109.5 C 151.573,111.027 150.906,112.027 149.5,112.5C 149.427,110.973 150.094,109.973 151.5,109.5 Z"/></g>
<g><path style="opacity:1" fill="#878787" d="M 98.5,106.5 C 98.2451,108.967 97.2451,110.967 95.5,112.5C 95.7549,110.033 96.7549,108.033 98.5,106.5 Z"/></g>
<g><path style="opacity:1" fill="#7d7d7d" d="M 123.5,111.5 C 123.573,113.027 122.906,114.027 121.5,114.5C 121.427,112.973 122.094,111.973 123.5,111.5 Z"/></g>
<g><path style="opacity:1" fill="#727272" d="M 262.5,113.5 C 263.906,113.973 264.573,114.973 264.5,116.5C 263.094,116.027 262.427,115.027 262.5,113.5 Z"/></g>
<g><path style="opacity:1" fill="#5b5b5b" d="M 67.5,115.5 C 67.2624,117.404 66.2624,118.738 64.5,119.5C 64.7376,117.596 65.7376,116.262 67.5,115.5 Z"/></g>
<g><path style="opacity:1" fill="#7b7b7b" d="M 121.5,115.5 C 121.34,117.153 120.674,118.486 119.5,119.5C 119.229,117.62 119.896,116.287 121.5,115.5 Z"/></g>
<g><path style="opacity:1" fill="#a7a7a7" d="M 209.5,115.5 C 211.822,116.802 213.155,118.802 213.5,121.5C 211.674,119.853 210.34,117.853 209.5,115.5 Z"/></g>
<g><path style="opacity:1" fill="#7b7b7b" d="M 237.5,116.5 C 238.906,116.973 239.573,117.973 239.5,119.5C 238.094,119.027 237.427,118.027 237.5,116.5 Z"/></g>
<g><path style="opacity:1" fill="#757575" d="M 264.5,116.5 C 266.104,117.287 266.771,118.62 266.5,120.5C 265.326,119.486 264.66,118.153 264.5,116.5 Z"/></g>
<g><path style="opacity:1" fill="#bdbdbd" d="M 148.5,114.5 C 148.969,117.393 147.969,119.393 145.5,120.5C 145.992,118.181 146.992,116.181 148.5,114.5 Z"/></g>
<g><path style="opacity:1" fill="#616161" d="M 119.5,119.5 C 119.573,121.027 118.906,122.027 117.5,122.5C 117.427,120.973 118.094,119.973 119.5,119.5 Z"/></g>
<g><path style="opacity:1" fill="#727272" d="M 266.5,120.5 C 267.906,120.973 268.573,121.973 268.5,123.5C 267.094,123.027 266.427,122.027 266.5,120.5 Z"/></g>
<g><path style="opacity:1" fill="#3f3f3f" d="M 63.5,122.5 C 63.7593,124.989 62.7593,126.656 60.5,127.5C 60.7497,125.326 61.7497,123.659 63.5,122.5 Z"/></g>
<g><path style="opacity:1" fill="#919191" d="M 185.5,120.5 C 187.245,122.033 188.245,124.033 188.5,126.5C 186.755,124.967 185.755,122.967 185.5,120.5 Z"/></g>
<g><path style="opacity:1" fill="#6e6e6e" d="M 214.5,124.5 C 215.906,124.973 216.573,125.973 216.5,127.5C 215.094,127.027 214.427,126.027 214.5,124.5 Z"/></g>
<g><path style="opacity:1" fill="#aaaaaa" d="M 89.5,124.5 C 89.2753,127.546 87.942,129.879 85.5,131.5C 85.7247,128.454 87.058,126.121 89.5,124.5 Z"/></g>
<g><path style="opacity:1" fill="#696969" d="M 59.5,130.5 C 59.573,132.027 58.9063,133.027 57.5,133.5C 57.427,131.973 58.0937,130.973 59.5,130.5 Z"/></g>
<g><path style="opacity:1" fill="#a2a2a2" d="M 143.5,125.5 C 141.267,130.733 138.6,135.733 135.5,140.5C 136.347,134.47 139.013,129.47 143.5,125.5 Z"/></g>
<g><path style="opacity:1" fill="#454545" d="M 271.5,130.5 C 273.25,131.659 274.25,133.326 274.5,135.5C 272.241,134.656 271.241,132.989 271.5,130.5 Z"/></g>
<g><path style="opacity:1" fill="#a3a3a3" d="M 218.5,132.5 C 222.448,135.411 224.448,139.077 224.5,143.5C 222.264,140.033 220.264,136.366 218.5,132.5 Z"/></g>
<g><path style="opacity:1" fill="#929292" d="M 57.5,133.5 C 57.573,135.027 56.9063,136.027 55.5,136.5C 55.427,134.973 56.0937,133.973 57.5,133.5 Z"/></g>
<g><path style="opacity:1" fill="#a1a1a1" d="M 245.5,131.5 C 247.199,133.566 248.532,135.9 249.5,138.5C 247.058,136.879 245.725,134.546 245.5,131.5 Z"/></g>
<g><path style="opacity:1" fill="#868686" d="M 82.5,137.5 C 82.573,139.027 81.9063,140.027 80.5,140.5C 80.427,138.973 81.0937,137.973 82.5,137.5 Z"/></g>
<g><path style="opacity:1" fill="#535353" d="M 109.5,138.5 C 109.573,140.027 108.906,141.027 107.5,141.5C 107.427,139.973 108.094,138.973 109.5,138.5 Z"/></g>
<g><path style="opacity:1" fill="#c0c0c0" d="M 54.5,138.5 C 53.8333,140.167 53.1667,141.833 52.5,143.5C 52.1667,143.5 51.8333,143.5 51.5,143.5C 51.2591,140.966 52.2591,139.3 54.5,138.5 Z"/></g>
<g><path style="opacity:1" fill="#afafaf" d="M 249.5,138.5 C 251.017,141.035 252.35,143.702 253.5,146.5C 250.593,144.685 249.259,142.019 249.5,138.5 Z"/></g>
<g><path style="opacity:1" fill="#565656" d="M 51.5,143.5 C 51.8333,143.5 52.1667,143.5 52.5,143.5C 52.573,145.027 51.9063,146.027 50.5,146.5C 50.5569,145.391 50.8902,144.391 51.5,143.5 Z"/></g>
<g><path style="opacity:1" fill="#a7a7a7" d="M 279.5,144.5 C 281.913,145.68 282.913,147.68 282.5,150.5C 280.992,148.819 279.992,146.819 279.5,144.5 Z"/></g>
<g><path style="opacity:1" fill="#424242" d="M 224.5,143.5 C 226.924,146.008 228.59,149.008 229.5,152.5C 228.624,152.631 227.957,152.298 227.5,151.5C 225.942,149.009 224.942,146.343 224.5,143.5 Z"/></g>
<g><path style="opacity:1" fill="#414141" d="M 106.5,143.5 C 106.408,145.848 105.408,147.514 103.5,148.5C 103.75,146.326 104.75,144.659 106.5,143.5 Z"/></g>
<g><path style="opacity:1" fill="#bfbfbf" d="M 253.5,146.5 C 255.083,148.663 256.416,150.996 257.5,153.5C 256.542,153.047 255.708,152.381 255,151.5C 254.667,151.833 254.333,152.167 254,152.5C 253.505,150.527 253.338,148.527 253.5,146.5 Z"/></g>
<g><path style="opacity:1" fill="#8d8d8d" d="M 103.5,148.5 C 103.34,150.153 102.674,151.486 101.5,152.5C 101.229,150.62 101.896,149.287 103.5,148.5 Z"/></g>
<g><path style="opacity:1" fill="#3b3b3b" d="M 50.5,146.5 C 50.9689,149.393 49.9689,151.393 47.5,152.5C 47.9925,150.181 48.9925,148.181 50.5,146.5 Z"/></g>
<g><path style="opacity:1" fill="#a6a6a6" d="M 77.5,146.5 C 77.2451,148.967 76.2451,150.967 74.5,152.5C 74.0246,149.687 75.0246,147.687 77.5,146.5 Z"/></g>
<g><path style="opacity:1" fill="#b2b2b2" d="M 101.5,152.5 C 100.478,154.544 99.478,156.544 98.5,158.5C 98.087,155.68 99.087,153.68 101.5,152.5 Z"/></g>
<g><path style="opacity:1" fill="#595959" d="M 47.5,152.5 C 47.7271,154.933 46.7271,156.599 44.5,157.5C 45.1103,155.566 46.1103,153.899 47.5,152.5 Z"/></g>
<g><path style="opacity:1" fill="#969696" d="M 127.5,154.5 C 126.492,156.544 125.492,158.544 124.5,160.5C 124.025,157.687 125.025,155.687 127.5,154.5 Z"/></g>
<g><path style="opacity:1" fill="#626262" d="M 204.5,155.5 C 205.906,155.973 206.573,156.973 206.5,158.5C 205.094,158.027 204.427,157.027 204.5,155.5 Z"/></g>
<g><path style="opacity:1" fill="#959595" d="M 98.5,158.5 C 98.0679,159.71 97.4013,160.71 96.5,161.5C 96.2852,159.821 96.9519,158.821 98.5,158.5 Z"/></g>
<g><path style="opacity:1" fill="#8f8f8f" d="M 232.5,158.5 C 233.906,158.973 234.573,159.973 234.5,161.5C 233.094,161.027 232.427,160.027 232.5,158.5 Z"/></g>
<g><path style="opacity:1" fill="#cacaca" d="M 257.5,153.5 C 259.126,156.475 260.792,159.475 262.5,162.5C 261.417,162.461 260.417,162.127 259.5,161.5C 258.205,158.988 257.539,156.321 257.5,153.5 Z"/></g>
<g><path style="opacity:1" fill="#8e8e8e" d="M 287.5,159.5 C 288.906,159.973 289.573,160.973 289.5,162.5C 288.094,162.027 287.427,161.027 287.5,159.5 Z"/></g>
<g><path style="opacity:1" fill="#d7d7d7" d="M 71.5,157.5 C 71.6988,160.011 72.0321,162.178 72.5,164C 71.5509,164.617 70.7175,164.451 70,163.5C 68.9049,165.932 67.4049,168.098 65.5,170C 65.6448,170.772 65.9781,171.439 66.5,172C 65.0161,172.662 63.6828,173.496 62.5,174.5C 65.2465,168.673 68.2465,163.006 71.5,157.5 Z"/></g>
<g><path style="opacity:1" fill="#969696" d="M 124.5,160.5 C 124.573,162.027 123.906,163.027 122.5,163.5C 122.427,161.973 123.094,160.973 124.5,160.5 Z"/></g>
<g><path style="opacity:1" fill="#c8c8c8" d="M 43.5,159.5 C 41.9884,163.201 39.9884,166.534 37.5,169.5C 37.7539,166.986 38.5873,164.652 40,162.5C 40.7589,160.937 41.9256,159.937 43.5,159.5 Z"/></g>
<g><path style="opacity:1" fill="#e0e0e0" d="M 200.5,148.5 C 201.828,150.793 203.161,153.127 204.5,155.5C 204.427,157.027 205.094,158.027 206.5,158.5C 208.105,161.378 209.439,164.378 210.5,167.5C 206.086,166.784 204.086,164.451 204.5,160.5C 203.833,161.833 203.167,163.167 202.5,164.5C 201.207,161.794 201.541,159.294 203.5,157C 203.2,154.976 202.367,154.476 201,155.5C 200.503,153.19 200.337,150.857 200.5,148.5 Z"/></g>
<g><path style="opacity:1" fill="#3b3b3b" d="M 96.5,161.5 C 96.5668,163.401 96.2335,165.234 95.5,167C 93.5643,169.035 91.8977,171.202 90.5,173.5C 91.9766,169.213 93.9766,165.213 96.5,161.5 Z"/></g>
<g><path style="opacity:1" fill="#848484" d="M 263.5,165.5 C 264.906,165.973 265.573,166.973 265.5,168.5C 264.094,168.027 263.427,167.027 263.5,165.5 Z"/></g>
<g><path style="opacity:1" fill="#797979" d="M 211.5,169.5 C 212.906,169.973 213.573,170.973 213.5,172.5C 212.094,172.027 211.427,171.027 211.5,169.5 Z"/></g>
<g><path style="opacity:1" fill="#6f6f6f" d="M 293.5,171.5 C 294.906,171.973 295.573,172.973 295.5,174.5C 294.094,174.027 293.427,173.027 293.5,171.5 Z"/></g>
<g><path style="opacity:1" fill="#7a7a7a" d="M 267.5,172.5 C 268.906,172.973 269.573,173.973 269.5,175.5C 268.094,175.027 267.427,174.027 267.5,172.5 Z"/></g>
<g><path style="opacity:1" fill="#818181" d="M 240.5,173.5 C 241.906,173.973 242.573,174.973 242.5,176.5C 241.094,176.027 240.427,175.027 240.5,173.5 Z"/></g>
<g><path style="opacity:1" fill="#5e5e5e" d="M 35.5,175.5 C 35.2624,177.404 34.2624,178.738 32.5,179.5C 32.7376,177.596 33.7376,176.262 35.5,175.5 Z"/></g>
<g><path style="opacity:1" fill="#bcbcbc" d="M 120.5,167.5 C 119.639,171.026 118.306,174.359 116.5,177.5C 116.043,178.298 115.376,178.631 114.5,178.5C 115.756,174.313 117.756,170.646 120.5,167.5 Z"/></g>
<g><path style="opacity:1" fill="#9c9c9c" d="M 62.5,174.5 C 62.4077,176.848 61.4077,178.514 59.5,179.5C 59.7497,177.326 60.7497,175.659 62.5,174.5 Z"/></g>
<g><path style="opacity:1" fill="#686868" d="M 88.5,176.5 C 88.3465,178.97 87.3465,180.97 85.5,182.5C 85.6535,180.03 86.6535,178.03 88.5,176.5 Z"/></g>
<g><path style="opacity:1" fill="#5c5c5c" d="M 297.5,178.5 C 298.906,178.973 299.573,179.973 299.5,181.5C 298.094,181.027 297.427,180.027 297.5,178.5 Z"/></g>
<g><path style="opacity:1" fill="#666666" d="M 243.5,179.5 C 244.906,179.973 245.573,180.973 245.5,182.5C 244.094,182.027 243.427,181.027 243.5,179.5 Z"/></g>
<g><path style="opacity:1" fill="#4f4f4f" d="M 32.5,179.5 C 32.3259,181.861 31.9926,184.194 31.5,186.5C 30.1326,183.988 30.466,181.655 32.5,179.5 Z"/></g>
<g><path style="opacity:1" fill="#9d9d9d" d="M 113.5,179.5 C 113.326,181.861 112.993,184.194 112.5,186.5C 111.355,184.047 111.688,181.713 113.5,179.5 Z"/></g>
<g><path style="opacity:1" fill="#9b9b9b" d="M 216.5,178.5 C 217.857,179.59 218.857,180.924 219.5,182.5C 219.768,184.099 219.434,185.432 218.5,186.5C 218.037,183.779 217.371,181.112 216.5,178.5 Z"/></g>
<g><path style="opacity:1" fill="#3c3c3c" d="M 219.5,182.5 C 220.993,185.113 220.326,187.113 217.5,188.5C 217.328,187.508 217.662,186.842 218.5,186.5C 219.434,185.432 219.768,184.099 219.5,182.5 Z"/></g>
<g><path style="opacity:1" fill="#c5c5c5" d="M 269.5,177.5 C 272.358,179.712 273.691,182.712 273.5,186.5C 272.833,186.833 272.167,187.167 271.5,187.5C 271.845,183.885 271.178,180.552 269.5,177.5 Z"/></g>
<g><path style="opacity:1" fill="#5c5c5c" d="M 273.5,186.5 C 273.262,188.404 272.262,189.738 270.5,190.5C 270.557,189.391 270.89,188.391 271.5,187.5C 272.167,187.167 272.833,186.833 273.5,186.5 Z"/></g>
<g><path style="opacity:1" fill="#999999" d="M 300.5,186.5 C 300.573,188.027 299.906,189.027 298.5,189.5C 298.427,187.973 299.094,186.973 300.5,186.5 Z"/></g>
<g><path style="opacity:1" fill="#a7a7a7" d="M 270.5,190.5 C 270.34,192.153 269.674,193.486 268.5,194.5C 268.229,192.62 268.896,191.287 270.5,190.5 Z"/></g>
<g><path style="opacity:1" fill="#a7a7a7" d="M 242.5,191.5 C 242.88,193.698 242.213,195.365 240.5,196.5C 240.796,194.597 241.463,192.93 242.5,191.5 Z"/></g>
<g><path style="opacity:1" fill="#797979" d="M 115.5,193.5 C 116.906,193.973 117.573,194.973 117.5,196.5C 116.094,196.027 115.427,195.027 115.5,193.5 Z"/></g>
<g><path style="opacity:1" fill="#b5b5b5" d="M 298.5,189.5 C 297.603,192.213 296.27,194.546 294.5,196.5C 294.725,193.454 296.058,191.121 298.5,189.5 Z"/></g>
<g><path style="opacity:1" fill="#9d9d9d" d="M 89.5,193.5 C 90.6737,194.514 91.3404,195.847 91.5,197.5C 89.8235,196.817 89.1568,195.483 89.5,193.5 Z"/></g>
<g><path style="opacity:1" fill="#5b5b5b" d="M 214.5,195.5 C 214.573,197.027 213.906,198.027 212.5,198.5C 212.427,196.973 213.094,195.973 214.5,195.5 Z"/></g>
<g><path style="opacity:1" fill="#a0a0a0" d="M 91.5,197.5 C 92.6737,198.514 93.3404,199.847 93.5,201.5C 91.8235,200.817 91.1568,199.483 91.5,197.5 Z"/></g>
<g><path style="opacity:1" fill="#6c6c6c" d="M 212.5,198.5 C 211.532,201.1 210.199,203.434 208.5,205.5C 208.725,202.454 210.058,200.121 212.5,198.5 Z"/></g>
<g><path style="opacity:1" fill="#5c5c5c" d="M 266.5,199.5 C 266.573,201.027 265.906,202.027 264.5,202.5C 264.427,200.973 265.094,199.973 266.5,199.5 Z"/></g>
<g><path style="opacity:1" fill="#cfcfcf" d="M 36.5,196.5 C 38.4946,200.132 40.4946,203.799 42.5,207.5C 40.5475,206.374 39.0475,204.708 38,202.5C 37.6667,202.833 37.3333,203.167 37,203.5C 37.0858,201.359 36.9191,199.026 36.5,196.5 Z"/></g>
<g><path style="opacity:1" fill="#888888" d="M 238.5,200.5 C 238.573,202.027 237.906,203.027 236.5,203.5C 236.427,201.973 237.094,200.973 238.5,200.5 Z"/></g>
<g><path style="opacity:1" fill="#747474" d="M 264.5,202.5 C 264.573,204.027 263.906,205.027 262.5,205.5C 262.427,203.973 263.094,202.973 264.5,202.5 Z"/></g>
<g><path style="opacity:1" fill="#5c5c5c" d="M 236.5,203.5 C 236.25,205.674 235.25,207.341 233.5,208.5C 233.75,206.326 234.75,204.659 236.5,203.5 Z"/></g>
<g><path style="opacity:1" fill="#a4a4a4" d="M 93.5,202.5 C 95.2451,204.033 96.2451,206.033 96.5,208.5C 94.7549,206.967 93.7549,204.967 93.5,202.5 Z"/></g>
<g><path style="opacity:1" fill="#5e5e5e" d="M 122.5,206.5 C 123.906,206.973 124.573,207.973 124.5,209.5C 123.094,209.027 122.427,208.027 122.5,206.5 Z"/></g>
<g><path style="opacity:1" fill="#949494" d="M 289.5,205.5 C 289.851,208.812 288.518,211.145 285.5,212.5C 286.584,209.996 287.917,207.663 289.5,205.5 Z"/></g>
<g><path style="opacity:1" fill="#323232" d="M 99.5,211.5 C 101.185,212.709 102.852,213.709 104.5,214.5C 103.559,214.489 102.892,214.989 102.5,216C 102.989,217.138 103.322,218.305 103.5,219.5C 101.127,217.421 99.7936,214.754 99.5,211.5 Z"/></g>
<g><path style="opacity:1" fill="#616161" d="M 232.5,210.5 C 232.573,212.027 231.906,213.027 230.5,213.5C 230.427,211.973 231.094,210.973 232.5,210.5 Z"/></g>
<g><path style="opacity:1" fill="#999999" d="M 259.5,211.5 C 259.34,213.153 258.674,214.486 257.5,215.5C 257.229,213.62 257.896,212.287 259.5,211.5 Z"/></g>
<g><path style="opacity:1" fill="#6c6c6c" d="M 206.5,209.5 C 205.78,213.945 203.78,217.612 200.5,220.5C 202.244,216.677 204.244,213.01 206.5,209.5 Z"/></g>
<g><path style="opacity:1" fill="#a5a5a5" d="M 285.5,213.5 C 285.245,215.967 284.245,217.967 282.5,219.5C 282.755,217.033 283.755,215.033 285.5,213.5 Z"/></g>
<g><path style="opacity:1" fill="#242424" d="M 73.5,216.5 C 76.3346,220.164 78.668,224.164 80.5,228.5C 79.1411,227.993 78.1411,226.993 77.5,225.5C 76.5745,226.641 75.7412,226.641 75,225.5C 74.6667,223.833 74.3333,222.167 74,220.5C 73.3457,221.696 72.8457,221.696 72.5,220.5C 73.2458,219.264 73.5792,217.93 73.5,216.5 Z"/></g>
<g><path style="opacity:1" fill="#6d6d6d" d="M 255.5,219.5 C 255.573,221.027 254.906,222.027 253.5,222.5C 253.427,220.973 254.094,219.973 255.5,219.5 Z"/></g>
<g><path style="opacity:1" fill="#7b7b7b" d="M 130.5,220.5 C 131.906,220.973 132.573,221.973 132.5,223.5C 131.094,223.027 130.427,222.027 130.5,220.5 Z"/></g>
<g><path style="opacity:1" fill="#8c8c8c" d="M 200.5,220.5 C 200.573,222.027 199.906,223.027 198.5,223.5C 198.427,221.973 199.094,220.973 200.5,220.5 Z"/></g>
<g><path style="opacity:1" fill="#8e8e8e" d="M 50.5,223.5 C 51.9063,223.973 52.573,224.973 52.5,226.5C 51.0937,226.027 50.427,225.027 50.5,223.5 Z"/></g>
<g><path style="opacity:1" fill="#868686" d="M 103.5,220.5 C 105.245,222.033 106.245,224.033 106.5,226.5C 106.167,226.5 105.833,226.5 105.5,226.5C 104.637,224.579 103.971,222.579 103.5,220.5 Z"/></g>
<g><path style="opacity:1" fill="#cecece" d="M 105.5,226.5 C 105.833,226.5 106.167,226.5 106.5,226.5C 107.793,228.808 109.126,231.142 110.5,233.5C 108.519,231.856 106.519,230.19 104.5,228.5C 104.863,227.817 105.196,227.15 105.5,226.5 Z"/></g>
<g><path style="opacity:1" fill="#bbbbbb" d="M 226.5,222.5 C 226.645,226.547 224.978,229.547 221.5,231.5C 221.94,227.748 223.607,224.748 226.5,222.5 Z"/></g>
<g><path style="opacity:1" fill="#585858" d="M 278.5,226.5 C 278.262,228.404 277.262,229.738 275.5,230.5C 275.738,228.596 276.738,227.262 278.5,226.5 Z"/></g>
<g><path style="opacity:1" fill="#777777" d="M 81.5,230.5 C 83.1042,231.287 83.7709,232.62 83.5,234.5C 82.3263,233.486 81.6596,232.153 81.5,230.5 Z"/></g>
<g><path style="opacity:1" fill="#787878" d="M 195.5,230.5 C 195.573,232.027 194.906,233.027 193.5,233.5C 193.427,231.973 194.094,230.973 195.5,230.5 Z"/></g>
<g><path style="opacity:1" fill="#737373" d="M 221.5,231.5 C 221.573,233.027 220.906,234.027 219.5,234.5C 219.427,232.973 220.094,231.973 221.5,231.5 Z"/></g>
<g><path style="opacity:1" fill="#909090" d="M 56.5,232.5 C 57.5375,233.93 58.2041,235.597 58.5,237.5C 56.7868,236.365 56.1201,234.698 56.5,232.5 Z"/></g>
<g><path style="opacity:1" fill="#878787" d="M 274.5,233.5 C 274.245,235.967 273.245,237.967 271.5,239.5C 271.755,237.033 272.755,235.033 274.5,233.5 Z"/></g>
<g><path style="opacity:1" fill="#4d4d4d" d="M 137.5,234.5 C 139.245,236.033 140.245,238.033 140.5,240.5C 138.755,238.967 137.755,236.967 137.5,234.5 Z"/></g>
<g><path style="opacity:1" fill="#aeaeae" d="M 58.5,237.5 C 60.9668,240.337 62.6334,243.671 63.5,247.5C 62.0941,245.526 60.5941,243.526 59,241.5C 58.51,240.207 58.3433,238.873 58.5,237.5 Z"/></g>
<g><path style="opacity:1" fill="#2a2a2a" d="M 84.5,236.5 C 86.0828,238.663 87.4161,240.996 88.5,243.5C 86.8706,241.94 85.704,242.273 85,244.5C 85.4012,241.939 85.2345,239.272 84.5,236.5 Z"/></g>
<g><path style="opacity:1" fill="#818181" d="M 217.5,239.5 C 217.573,241.027 216.906,242.027 215.5,242.5C 215.427,240.973 216.094,239.973 217.5,239.5 Z"/></g>
<g><path style="opacity:1" fill="#6d6d6d" d="M 141.5,241.5 C 142.906,241.973 143.573,242.973 143.5,244.5C 142.094,244.027 141.427,243.027 141.5,241.5 Z"/></g>
<g><path style="opacity:1" fill="#818181" d="M 88.5,243.5 C 89.9063,243.973 90.573,244.973 90.5,246.5C 89.0937,246.027 88.427,245.027 88.5,243.5 Z"/></g>
<g><path style="opacity:1" fill="#a0a0a0" d="M 114.5,241.5 C 116.245,243.033 117.245,245.033 117.5,247.5C 115.755,245.967 114.755,243.967 114.5,241.5 Z"/></g>
<g><path style="opacity:1" fill="#838383" d="M 144.5,246.5 C 145.674,247.514 146.34,248.847 146.5,250.5C 144.896,249.713 144.229,248.38 144.5,246.5 Z"/></g>
<g><path style="opacity:1" fill="#dddddd" d="M 189.5,240.5 C 188.758,242.98 187.758,245.313 186.5,247.5C 184.75,248.659 183.75,250.326 183.5,252.5C 182.878,254.122 181.878,255.455 180.5,256.5C 180.626,254.8 181.293,253.3 182.5,252C 182.241,250.739 181.574,249.739 180.5,249C 182.002,248.417 183.335,247.584 184.5,246.5C 184.291,245.914 183.957,245.414 183.5,245C 185.049,243.786 186.215,242.286 187,240.5C 187.77,241.598 188.603,241.598 189.5,240.5 Z"/></g>
<g><path style="opacity:1" fill="#868686" d="M 215.5,242.5 C 215.851,245.812 214.518,248.145 211.5,249.5C 212.874,247.142 214.207,244.808 215.5,242.5 Z"/></g>
<g><path style="opacity:1" fill="#6a6a6a" d="M 63.5,247.5 C 64.9063,247.973 65.573,248.973 65.5,250.5C 64.8333,250.167 64.1667,249.833 63.5,249.5C 63.5,248.833 63.5,248.167 63.5,247.5 Z"/></g>
<g><path style="opacity:1" fill="#6e6e6e" d="M 186.5,247.5 C 186.25,249.674 185.25,251.341 183.5,252.5C 183.75,250.326 184.75,248.659 186.5,247.5 Z"/></g>
<g><path style="opacity:1" fill="#8f8f8f" d="M 266.5,249.5 C 266.573,251.027 265.906,252.027 264.5,252.5C 264.427,250.973 265.094,249.973 266.5,249.5 Z"/></g>
<g><path style="opacity:1" fill="#dbdbdb" d="M 63.5,249.5 C 64.1667,249.833 64.8333,250.167 65.5,250.5C 67.6916,253.55 69.3583,256.883 70.5,260.5C 66.5604,259.378 64.727,256.712 65,252.5C 64.0805,252.07 63.2472,251.736 62.5,251.5C 62.8627,250.817 63.1961,250.15 63.5,249.5 Z"/></g>
<g><path style="opacity:1" fill="#a5a5a5" d="M 120.5,251.5 C 122.017,254.035 123.35,256.702 124.5,259.5C 121.593,257.685 120.259,255.019 120.5,251.5 Z"/></g>
<g><path style="opacity:1" fill="#8f8f8f" d="M 210.5,251.5 C 210.598,253.553 209.931,255.22 208.5,256.5C 208.402,254.447 209.069,252.78 210.5,251.5 Z"/></g>
<g><path style="opacity:1" fill="#7c7c7c" d="M 264.5,252.5 C 264.573,254.027 263.906,255.027 262.5,255.5C 262.427,253.973 263.094,252.973 264.5,252.5 Z"/></g>
<g><path style="opacity:1" fill="#444444" d="M 94.5,256.5 C 96.7379,257.853 98.0713,259.853 98.5,262.5C 96.631,260.966 95.2977,258.966 94.5,256.5 Z"/></g>
<g><path style="opacity:1" fill="#3c3c3c" d="M 237.5,252.5 C 237.87,256.792 236.203,259.792 232.5,261.5C 234.605,258.779 236.272,255.779 237.5,252.5 Z"/></g>
<g><path style="opacity:1" fill="#8c8c8c" d="M 207.5,258.5 C 207.573,260.027 206.906,261.027 205.5,261.5C 205.427,259.973 206.094,258.973 207.5,258.5 Z"/></g>
<g><path style="opacity:1" fill="#9a9a9a" d="M 179.5,258.5 C 179.598,260.553 178.931,262.22 177.5,263.5C 177.402,261.447 178.069,259.78 179.5,258.5 Z"/></g>
<g><path style="opacity:1" fill="#a3a3a3" d="M 262.5,255.5 C 262.741,259.019 261.407,261.685 258.5,263.5C 259.65,260.702 260.983,258.035 262.5,255.5 Z"/></g>
<g><path style="opacity:1" fill="#878787" d="M 70.5,260.5 C 71.9063,260.973 72.573,261.973 72.5,263.5C 71.0937,263.027 70.427,262.027 70.5,260.5 Z"/></g>
<g><path style="opacity:1" fill="#bbbbbb" d="M 124.5,259.5 C 125.674,260.514 126.34,261.847 126.5,263.5C 126.5,264.167 126.5,264.833 126.5,265.5C 124.72,264.01 124.054,262.01 124.5,259.5 Z"/></g>
<g><path style="opacity:1" fill="#6e6e6e" d="M 98.5,262.5 C 99.9063,262.973 100.573,263.973 100.5,265.5C 99.0937,265.027 98.427,264.027 98.5,262.5 Z"/></g>
<g><path style="opacity:1" fill="#b4b4b4" d="M 205.5,261.5 C 205.969,264.393 204.969,266.393 202.5,267.5C 203.13,265.25 204.13,263.25 205.5,261.5 Z"/></g>
<g><path style="opacity:1" fill="#5b5b5b" d="M 126.5,263.5 C 127.906,263.973 128.573,264.973 128.5,266.5C 127.833,266.167 127.167,265.833 126.5,265.5C 126.5,264.833 126.5,264.167 126.5,263.5 Z"/></g>
<g><path style="opacity:1" fill="#9f9f9f" d="M 231.5,263.5 C 231.34,265.153 230.674,266.486 229.5,267.5C 229.229,265.62 229.896,264.287 231.5,263.5 Z"/></g>
<g><path style="opacity:1" fill="#606060" d="M 154.5,266.5 C 155.906,266.973 156.573,267.973 156.5,269.5C 155.094,269.027 154.427,268.027 154.5,266.5 Z"/></g>
<g><path style="opacity:1" fill="#ababab" d="M 258.5,263.5 C 258.117,268.176 256.117,271.843 252.5,274.5C 254.541,270.809 256.541,267.142 258.5,263.5 Z"/></g>
<g><path style="opacity:1" fill="#6c6c6c" d="M 101.5,268.5 C 102.906,268.973 103.573,269.973 103.5,271.5C 102.094,271.027 101.427,270.027 101.5,268.5 Z"/></g>
<g><path style="opacity:1" fill="#2f2f2f" d="M 177.5,263.5 C 176.826,266.699 176.326,269.699 176,272.5C 175.667,272.167 175.333,271.833 175,271.5C 174.292,272.381 173.458,273.047 172.5,273.5C 173.791,269.948 175.458,266.614 177.5,263.5 Z"/></g>
<g><path style="opacity:1" fill="#adadad" d="M 228.5,269.5 C 227.5,272.167 226.5,274.833 225.5,277.5C 224.833,277.833 224.167,278.167 223.5,278.5C 223.877,276.742 224.544,275.075 225.5,273.5C 224.737,271.273 225.737,269.94 228.5,269.5 Z"/></g>
<g><path style="opacity:1" fill="#d1d1d1" d="M 72.5,265.5 C 73.4584,265.953 74.2917,266.619 75,267.5C 77.3716,270.91 79.2049,274.577 80.5,278.5C 79.2502,278.423 78.4169,277.756 78,276.5C 77.6667,277.5 77.3333,278.5 77,279.5C 76.6537,276.049 75.1537,273.216 72.5,271C 73.6733,269.174 73.6733,267.341 72.5,265.5 Z"/></g>
<g><path style="opacity:1" fill="#b6b6b6" d="M 202.5,267.5 C 202.408,269.848 201.408,271.514 199.5,272.5C 199.75,270.326 200.75,268.659 202.5,267.5 Z"/></g>
<g><path style="opacity:1" fill="#696969" d="M 199.5,272.5 C 199.573,274.027 198.906,275.027 197.5,275.5C 197.427,273.973 198.094,272.973 199.5,272.5 Z"/></g>
<g><path style="opacity:1" fill="#989898" d="M 157.5,274.5 C 157.975,277.313 156.975,279.313 154.5,280.5C 155.508,278.456 156.508,276.456 157.5,274.5 Z"/></g>
<g><path style="opacity:1" fill="#999999" d="M 133.5,277.5 C 134.906,277.973 135.573,278.973 135.5,280.5C 134.094,280.027 133.427,279.027 133.5,277.5 Z"/></g>
<g><path style="opacity:1" fill="#b6b6b6" d="M 252.5,274.5 C 252.969,277.393 251.969,279.393 249.5,280.5C 249.992,278.181 250.992,276.181 252.5,274.5 Z"/></g>
<g><path style="opacity:1" fill="#393939" d="M 225.5,277.5 C 224.567,280.37 222.9,282.704 220.5,284.5C 221.508,282.456 222.508,280.456 223.5,278.5C 224.167,278.167 224.833,277.833 225.5,277.5 Z"/></g>
<g><path style="opacity:1" fill="#8b8b8b" d="M 81.5,280.5 C 83.2451,282.033 84.2451,284.033 84.5,286.5C 82.7549,284.967 81.7549,282.967 81.5,280.5 Z"/></g>
<g><path style="opacity:1" fill="#545454" d="M 109.5,282.5 C 111.346,284.03 112.346,286.03 112.5,288.5C 110.455,287.077 109.455,285.077 109.5,282.5 Z"/></g>
<g><path style="opacity:1" fill="#5f5f5f" d="M 195.5,280.5 C 194.66,282.853 193.326,284.853 191.5,286.5C 191.845,283.802 193.178,281.802 195.5,280.5 Z"/></g>
<g><path style="opacity:1" fill="#9b9b9b" d="M 137.5,284.5 C 139.199,286.566 140.532,288.9 141.5,291.5C 140.5,290.833 139.5,290.167 138.5,289.5C 138.371,287.784 138.038,286.117 137.5,284.5 Z"/></g>
<g><path style="opacity:1" fill="#9d9d9d" d="M 152.5,284.5 C 152.851,287.812 151.518,290.145 148.5,291.5C 149.874,289.142 151.207,286.808 152.5,284.5 Z"/></g>
<g><path style="opacity:1" fill="#737373" d="M 191.5,287.5 C 191.573,289.027 190.906,290.027 189.5,290.5C 189.427,288.973 190.094,287.973 191.5,287.5 Z"/></g>
<g><path style="opacity:1" fill="#656565" d="M 220.5,284.5 C 220.245,286.967 219.245,288.967 217.5,290.5C 217.755,288.033 218.755,286.033 220.5,284.5 Z"/></g>
<g><path style="opacity:1" fill="#7b7b7b" d="M 164.5,288.5 C 164.573,290.027 163.906,291.027 162.5,291.5C 162.427,289.973 163.094,288.973 164.5,288.5 Z"/></g>
<g><path style="opacity:1" fill="#c6c6c6" d="M 84.5,286.5 C 87.9414,291.047 90.6081,296.047 92.5,301.5C 90.2785,298.358 87.6119,295.525 84.5,293C 84.9863,290.973 84.9863,288.807 84.5,286.5 Z"/></g>
<g><path style="opacity:1" fill="#d2d2d2" d="M 138.5,289.5 C 139.5,290.167 140.5,290.833 141.5,291.5C 142.644,293.1 143.811,294.767 145,296.5C 146.189,294.767 147.356,293.1 148.5,291.5C 147.864,294.106 147.864,296.606 148.5,299C 145.733,298.674 143.066,297.841 140.5,296.5C 140.33,295.178 140.663,294.011 141.5,293C 139.574,292.578 138.574,291.411 138.5,289.5 Z"/></g>
<g><path style="opacity:1" fill="#929292" d="M 213.5,297.5 C 213.573,299.027 212.906,300.027 211.5,300.5C 211.427,298.973 212.094,297.973 213.5,297.5 Z"/></g>
<g><path style="opacity:1" fill="#616161" d="M 115.5,294.5 C 117.199,296.566 118.532,298.9 119.5,301.5C 117.058,299.879 115.725,297.546 115.5,294.5 Z"/></g>
<g><path style="opacity:1" fill="#a4a3a4" d="M 188.5,293.5 C 188.104,296.721 186.771,299.388 184.5,301.5C 184.896,298.279 186.229,295.612 188.5,293.5 Z"/></g>
<g><path style="opacity:1" fill="#6b6b6b" d="M 240.5,297.5 C 240.573,299.027 239.906,300.027 238.5,300.5C 238.427,298.973 239.094,297.973 240.5,297.5 Z"/></g>
<g><path style="opacity:1" fill="#6d6d6d" d="M 211.5,301.5 C 210.921,304.331 209.588,306.664 207.5,308.5C 208.079,305.669 209.412,303.336 211.5,301.5 Z"/></g>
<g><path style="opacity:1" fill="#878787" d="M 237.5,303.5 C 237.573,305.027 236.906,306.027 235.5,306.5C 235.427,304.973 236.094,303.973 237.5,303.5 Z"/></g>
<g><path style="opacity:1" fill="#868686" d="M 235.5,306.5 C 235.771,308.38 235.104,309.713 233.5,310.5C 233.66,308.847 234.326,307.514 235.5,306.5 Z"/></g>
<g><path style="opacity:1" fill="#2b2b2b" d="M 156.5,303.5 C 156.672,305.492 156.005,307.158 154.5,308.5C 155.167,309.167 155.833,309.833 156.5,310.5C 154.428,312.616 152.262,314.616 150,316.5C 149.316,317.784 149.483,318.951 150.5,320C 149.552,320.483 148.552,320.649 147.5,320.5C 149.725,314.382 152.725,308.715 156.5,303.5 Z"/></g>
<g><path style="opacity:1" fill="#8c8c8c" d="M 96.5,309.5 C 98.2624,310.262 99.2624,311.596 99.5,313.5C 97.7376,312.738 96.7376,311.404 96.5,309.5 Z"/></g>
<g><path style="opacity:1" fill="#343434" d="M 121.5,304.5 C 123.204,307.256 124.537,310.256 125.5,313.5C 123.86,312.68 122.193,311.847 120.5,311C 121.308,310.692 121.975,310.192 122.5,309.5C 121.691,307.929 121.357,306.262 121.5,304.5 Z"/></g>
<g><path style="opacity:1" fill="#848484" d="M 180.5,308.5 C 180.573,310.027 179.906,311.027 178.5,311.5C 178.427,309.973 179.094,308.973 180.5,308.5 Z"/></g>
<g><path style="opacity:1" fill="#515151" d="M 207.5,309.5 C 207.408,311.848 206.408,313.514 204.5,314.5C 204.75,312.326 205.75,310.659 207.5,309.5 Z"/></g>
<g><path style="opacity:1" fill="#a0a0a0" d="M 233.5,310.5 C 233.408,312.848 232.408,314.514 230.5,315.5C 230.75,313.326 231.75,311.659 233.5,310.5 Z"/></g>
<g><path style="opacity:1" fill="#9c9c9c" d="M 99.5,313.5 C 100.674,314.514 101.34,315.847 101.5,317.5C 99.8235,316.817 99.1568,315.483 99.5,313.5 Z"/></g>
<g><path style="opacity:1" fill="#797979" d="M 178.5,311.5 C 178.245,313.967 177.245,315.967 175.5,317.5C 175.755,315.033 176.755,313.033 178.5,311.5 Z"/></g>
<g><path style="opacity:1" fill="#7c7c7c" d="M 203.5,316.5 C 203.573,318.027 202.906,319.027 201.5,319.5C 201.427,317.973 202.094,316.973 203.5,316.5 Z"/></g>
<g><path style="opacity:1" fill="#7e7e7e" d="M 230.5,316.5 C 230.573,318.027 229.906,319.027 228.5,319.5C 228.427,317.973 229.094,316.973 230.5,316.5 Z"/></g>
<g><path style="opacity:1" fill="#515151" d="M 228.5,319.5 C 228.573,321.027 227.906,322.027 226.5,322.5C 226.427,320.973 227.094,319.973 228.5,319.5 Z"/></g>
<g><path style="opacity:1" fill="#636363" d="M 129.5,320.5 C 130.906,320.973 131.573,321.973 131.5,323.5C 130.094,323.027 129.427,322.027 129.5,320.5 Z"/></g>
<g><path style="opacity:1" fill="#7c7c7c" d="M 175.5,317.5 C 175.245,319.967 174.245,321.967 172.5,323.5C 172.755,321.033 173.755,319.033 175.5,317.5 Z"/></g>
<g><path style="opacity:1" fill="#8d8d8d" d="M 103.5,322.5 C 104.906,322.973 105.573,323.973 105.5,325.5C 104.094,325.027 103.427,324.027 103.5,322.5 Z"/></g>
<g><path style="opacity:1" fill="#8a8a8a" d="M 145.5,323.5 C 145.573,325.027 144.906,326.027 143.5,326.5C 143.427,324.973 144.094,323.973 145.5,323.5 Z"/></g>
<g><path style="opacity:1" fill="#919191" d="M 226.5,324.5 C 224.671,328.056 222.671,331.39 220.5,334.5C 221.214,330.311 223.214,326.978 226.5,324.5 Z"/></g>
<g><path style="opacity:1" fill="#929292" d="M 198.5,325.5 C 198.573,327.027 197.906,328.027 196.5,328.5C 196.427,326.973 197.094,325.973 198.5,325.5 Z"/></g>
<g><path style="opacity:1" fill="#bababa" d="M 131.5,323.5 C 134.112,325.052 135.445,327.386 135.5,330.5C 133.917,328.337 132.584,326.004 131.5,323.5 Z"/></g>
<g><path style="opacity:1" fill="#939393" d="M 171.5,325.5 C 170.905,328.317 169.572,330.65 167.5,332.5C 167.736,329.379 169.069,327.046 171.5,325.5 Z"/></g>
<g><path style="opacity:1" fill="#787878" d="M 141.5,331.5 C 141.573,333.027 140.906,334.027 139.5,334.5C 139.427,332.973 140.094,331.973 141.5,331.5 Z"/></g>
<g><path style="opacity:1" fill="#d3d3d3" d="M 105.5,325.5 C 109.275,330.715 112.275,336.382 114.5,342.5C 112.907,341.652 111.74,340.319 111,338.5C 110.683,340.301 110.016,340.634 109,339.5C 108.504,337.965 108.67,336.465 109.5,335C 108.907,333.118 107.573,332.118 105.5,332C 105.986,329.973 105.986,327.807 105.5,325.5 Z"/></g>
<g><path style="opacity:1" fill="#6c6c6c" d="M 193.5,335.5 C 193.573,337.027 192.906,338.027 191.5,338.5C 191.427,336.973 192.094,335.973 193.5,335.5 Z"/></g>
<g><path style="opacity:1" fill="#7c7c7c" d="M 165.5,336.5 C 165.573,338.027 164.906,339.027 163.5,339.5C 163.427,337.973 164.094,336.973 165.5,336.5 Z"/></g>
<g><path style="opacity:1" fill="#bebebe" d="M 220.5,334.5 C 220.708,338.085 219.375,340.751 216.5,342.5C 217.326,339.515 218.659,336.849 220.5,334.5 Z"/></g>
<g><path style="opacity:1" fill="#616161" d="M 161.5,343.5 C 161.573,345.027 160.906,346.027 159.5,346.5C 159.427,344.973 160.094,343.973 161.5,343.5 Z"/></g>
<g><path style="opacity:1" fill="#7c7c7c" d="M 188.5,344.5 C 188.573,346.027 187.906,347.027 186.5,347.5C 186.427,345.973 187.094,344.973 188.5,344.5 Z"/></g>
<g><path style="opacity:1" fill="#d0d0d0" d="M 216.5,342.5 C 216.664,345.187 216.497,347.854 216,350.5C 215.667,349.5 215.333,348.5 215,347.5C 214.584,349.55 213.417,350.884 211.5,351.5C 212.917,348.331 214.583,345.331 216.5,342.5 Z"/></g>
<g><path style="opacity:1" fill="#a8a8a8" d="M 116.5,346.5 C 118.25,347.659 119.25,349.326 119.5,351.5C 116.916,350.952 115.916,349.285 116.5,346.5 Z"/></g>
<g><path style="opacity:1" fill="#727272" d="M 119.5,351.5 C 120.906,351.973 121.573,352.973 121.5,354.5C 120.094,354.027 119.427,353.027 119.5,351.5 Z"/></g>
<g><path style="opacity:1" fill="#6a6a6a" d="M 183.5,354.5 C 183.573,356.027 182.906,357.027 181.5,357.5C 181.427,355.973 182.094,354.973 183.5,354.5 Z"/></g>
<g><path style="opacity:1" fill="#7d7d7d" d="M 209.5,355.5 C 209.573,357.027 208.906,358.027 207.5,358.5C 207.427,356.973 208.094,355.973 209.5,355.5 Z"/></g>
<g><path style="opacity:1" fill="#232323" d="M 181.5,357.5 C 181.5,358.5 181.5,359.5 181.5,360.5C 189.833,360.5 198.167,360.5 206.5,360.5C 197.658,361.822 188.658,361.822 179.5,360.5C 179.942,359.261 180.609,358.261 181.5,357.5 Z"/></g>
<g><path style="opacity:1" fill="#aaaaaa" d="M 155.5,355.5 C 155.116,357.929 154.449,360.263 153.5,362.5C 143.494,362.666 133.494,362.5 123.5,362C 122.62,360.644 122.286,359.144 122.5,357.5C 124.104,358.287 124.771,359.62 124.5,361.5C 133.833,361.5 143.167,361.5 152.5,361.5C 152.654,359.03 153.654,357.03 155.5,355.5 Z"/></g>
</svg>
